<svg width="375" height="201" viewBox="0 0 375 201" fill="none" xmlns="http://www.w3.org/2000/svg">
<mask id="mask0" mask-type="alpha" maskUnits="userSpaceOnUse" x="-277" y="0" width="878" height="201">
<rect x="-277" width="877.091" height="201" fill="#103B43"/>
</mask>
<g mask="url(#mask0)">
<path d="M-277 250.336V52.055C-273.529 51.4614 -270.014 51.1633 -266.493 51.1637C-260.511 51.1589 -254.559 52.0238 -248.826 53.7315C-243.291 55.3851 -238.017 57.8117 -233.161 60.9396C-228.363 64.028 -224.015 67.7645 -220.24 72.0431C-216.45 76.3342 -213.275 81.1319 -210.807 86.2981C-209.143 85.4262 -207.38 84.7559 -205.558 84.3013C-203.673 83.8334 -201.739 83.5971 -199.797 83.5978C-196.914 83.5935 -194.054 84.1162 -191.359 85.14C-188.76 86.1279 -186.355 87.566 -184.254 89.3884C-183.717 86.7186 -182.721 84.1621 -181.311 81.8327C-179.926 79.5424 -178.166 77.502 -176.103 75.7972C-174.03 74.0783 -171.678 72.7259 -169.15 71.7982C-166.529 70.837 -163.759 70.3467 -160.968 70.3501C-158.291 70.3468 -155.633 70.7969 -153.107 71.6812C-150.67 72.536 -148.39 73.7838 -146.357 75.3751C-144.338 76.951 -142.586 78.8422 -141.169 80.9757C-139.731 83.137 -138.659 85.5209 -137.997 88.0312C-134.275 84.905 -130.042 82.4433 -125.485 80.7541C-120.759 79.0029 -115.758 78.1095 -110.718 78.116C-106.053 78.1109 -101.419 78.8754 -97.0024 80.3786C-92.7425 81.8313 -88.7417 83.9543 -85.1507 86.6676C-81.5894 89.3533 -78.4716 92.5814 -75.9111 96.2339C-73.3184 99.926 -71.3337 104.01 -70.0323 108.329C-68.1298 107.68 -66.1328 107.35 -64.1225 107.352C-60.3117 107.343 -56.5948 108.534 -53.4987 110.756C-52.9939 106.32 -50.8791 102.223 -47.5551 99.2416C-45.924 97.7723 -44.0406 96.6101 -41.996 95.8108C-39.8761 94.9817 -37.6193 94.5579 -35.3429 94.5614C-33.4068 94.5594 -31.4827 94.8653 -29.6428 95.4678C-27.8676 96.0503 -26.1927 96.9028 -24.6771 97.9953C-23.7113 95.1347 -22.3064 92.4417 -20.5128 90.0129C-18.7377 87.6058 -16.6052 85.484 -14.1891 83.7211C-11.7503 81.9393 -9.0491 80.5478 -6.18243 79.5965C-3.21085 78.6126 -0.100433 78.1127 3.02979 78.116C6.36926 78.1118 9.68469 78.6813 12.8313 79.7998C15.8667 80.8802 18.7017 82.457 21.2208 84.4658C23.7231 86.4557 25.8834 88.8413 27.6162 91.5282C29.3767 94.254 30.6679 97.2556 31.4361 100.408C33.9604 99.8619 36.5357 99.5864 39.1184 99.5864C46.4335 99.5722 53.5782 101.794 59.5953 105.954C62.5027 107.961 65.1012 110.382 67.3082 113.14C69.5316 115.915 71.3318 119.005 72.6502 122.307C74.1652 119.362 76.4495 116.882 79.2604 115.131C82.1563 113.328 85.5002 112.374 88.9116 112.377C90.2795 112.377 91.6432 112.529 92.9773 112.831C94.2694 113.125 95.5255 113.559 96.7232 114.126C97.9012 114.684 99.0161 115.367 100.049 116.162C101.076 116.953 102.017 117.85 102.856 118.839C105.799 116.234 109.185 114.175 112.853 112.76C116.655 111.293 120.696 110.544 124.772 110.55C131.349 110.539 137.778 112.496 143.234 116.169C145.869 117.941 148.237 120.082 150.265 122.526C152.305 124.981 153.979 127.719 155.236 130.654C155.364 130.651 155.489 130.65 155.607 130.65C157.052 130.65 158.492 130.82 159.897 131.157C161.258 131.484 162.576 131.968 163.826 132.597C165.055 133.218 166.211 133.975 167.271 134.854C168.326 135.73 169.28 136.722 170.115 137.809C172.658 133.478 176.268 129.869 180.602 127.329C182.79 126.047 185.137 125.057 187.583 124.384C190.114 123.69 192.726 123.34 195.35 123.341C197.859 123.34 200.358 123.66 202.785 124.295C205.132 124.911 207.393 125.818 209.514 126.996C213.705 129.326 217.264 132.645 219.881 136.664C221.258 134.656 222.868 132.817 224.678 131.188C226.493 129.555 228.496 128.144 230.645 126.985C232.826 125.81 235.142 124.905 237.543 124.29C240.027 123.658 242.58 123.339 245.143 123.341C247.524 123.341 249.897 123.616 252.214 124.163C254.458 124.694 256.634 125.479 258.701 126.501C259.54 125.527 260.478 124.644 261.5 123.866C262.529 123.084 263.637 122.412 264.807 121.863C267.23 120.724 269.875 120.137 272.552 120.143C276.147 120.138 279.662 121.197 282.655 123.188C284.1 124.148 285.402 125.308 286.521 126.635C287.646 127.967 288.575 129.453 289.279 131.048C290.21 129.874 291.267 128.806 292.431 127.863C293.602 126.916 294.873 126.102 296.223 125.435C297.594 124.757 299.037 124.238 300.526 123.886C302.062 123.524 303.636 123.341 305.215 123.341C307.012 123.34 308.801 123.577 310.536 124.044C312.213 124.498 313.824 125.167 315.329 126.032C316.442 117.379 320.655 109.423 327.188 103.64C330.399 100.787 334.096 98.5321 338.103 96.9826C342.256 95.3754 346.672 94.5544 351.125 94.5614C353.964 94.5602 356.793 94.8923 359.554 95.5509C362.227 96.191 364.818 97.1358 367.275 98.3667C369.693 99.5797 371.967 101.06 374.055 102.78C376.134 104.493 378.016 106.432 379.666 108.561C381.189 107.45 382.875 106.583 384.664 105.991C386.518 105.378 388.459 105.066 390.412 105.068C392.871 105.063 395.306 105.558 397.569 106.523C399.752 107.452 401.733 108.799 403.4 110.488C404.192 106.341 405.703 102.364 407.865 98.7377C409.984 95.1755 412.692 91.9989 415.875 89.3432C419.073 86.6664 422.707 84.5591 426.619 83.1131C430.676 81.6149 434.967 80.8509 439.291 80.8569C442.663 80.8547 446.019 81.3183 449.264 82.2347C452.398 83.1227 455.399 84.4276 458.186 86.1144C459.108 82.5805 460.609 79.2234 462.626 76.1791C464.614 73.1748 467.073 70.5112 469.91 68.2912C472.768 66.05 475.973 64.2927 479.4 63.0894C482.952 61.8432 486.69 61.209 490.455 61.2137C497.052 61.2036 503.503 63.1598 508.983 66.8326C511.63 68.6048 514.01 70.7454 516.053 73.1897C518.107 75.6451 519.797 78.3837 521.07 81.321C522.416 81.0125 523.792 80.8568 525.173 80.8569C527.761 80.8511 530.32 81.3994 532.679 82.4649C533.817 82.9788 534.9 83.6081 535.91 84.3429C536.914 85.0735 537.841 85.9037 538.678 86.8207C540.051 83.8768 541.654 81.0456 543.471 78.3535C545.685 75.0785 548.207 72.0222 551.002 69.2263C553.798 66.4316 556.854 63.91 560.129 61.6961C563.429 59.4669 566.937 57.5627 570.604 56.0101C574.335 54.4331 578.212 53.2293 582.18 52.4163C586.271 51.5823 590.435 51.1626 594.609 51.1637C596.433 51.1637 598.278 51.2441 600.091 51.404V174.264C599.939 174.278 599.787 174.291 599.634 174.303V250.336H-277Z" fill="#0D2C30" fill-opacity="0.7"/>
<path d="M-277.457 275.009V247.783C-277.461 227.778 -277.502 128.239 -277.914 127C-265.634 127.011 -253.628 130.621 -243.378 137.382C-233.128 144.144 -225.084 153.761 -220.24 165.045C-218.478 164.655 -216.678 164.458 -214.873 164.459C-210.83 164.456 -206.848 165.448 -203.279 167.348C-199.71 169.247 -196.663 171.995 -194.407 175.35C-190.344 173.289 -185.852 172.218 -181.297 172.225C-177.138 172.22 -173.027 173.112 -169.245 174.839C-165.462 176.567 -162.096 179.089 -159.376 182.234C-156.582 176.493 -152.23 171.653 -146.817 168.268C-141.404 164.882 -135.147 163.087 -128.762 163.089C-122.241 163.088 -115.856 164.96 -110.368 168.484C-104.88 172.007 -100.519 177.033 -97.8053 182.963C-91.1414 179.499 -83.7391 177.695 -76.2283 177.707C-67.7677 177.694 -59.463 179.983 -52.2047 184.331C-50.5585 173.22 -44.9746 163.072 -36.4708 155.734C-27.9671 148.397 -17.1099 144.36 -5.87836 144.359C2.53287 144.356 10.7895 146.62 18.0235 150.911C25.2574 155.203 31.2015 161.364 35.2307 168.748C38.1685 167.72 41.2592 167.197 44.3716 167.2C50.3229 167.19 56.1169 169.111 60.8842 172.673C65.918 168.253 72.3908 165.82 79.0898 165.83C85.9818 165.83 92.625 168.405 97.7166 173.05C102.808 177.695 105.981 184.074 106.613 190.937C109.379 190.038 112.27 189.581 115.178 189.584C119.176 189.58 123.126 190.445 126.756 192.119C130.385 193.793 133.608 196.236 136.2 199.279C138.409 194.476 141.95 190.407 146.402 187.555C150.854 184.703 156.03 183.188 161.317 183.189C165.691 183.185 170.003 184.222 173.897 186.212C177.792 188.202 181.158 191.089 183.718 194.635C189.157 189.896 196.13 187.289 203.344 187.3C208.598 187.298 213.759 188.679 218.308 191.305C222.858 193.931 226.636 197.709 229.262 202.259C232.264 198.574 236.44 196.029 241.091 195.05C241.052 194.527 241.032 194 241.032 193.467C241.032 187.954 243.222 182.668 247.12 178.77C251.018 174.872 256.305 172.682 261.817 172.682C264.102 172.679 266.372 173.054 268.536 173.792C274.816 168.632 282.696 165.817 290.825 165.83C296.058 165.825 301.226 166.99 305.951 169.239C310.676 171.489 314.839 174.767 318.134 178.832C320.665 171.937 325.252 165.986 331.275 161.781C337.297 157.577 344.465 155.322 351.81 155.323C356.152 155.318 360.458 156.103 364.518 157.64C366.636 154.401 369.528 151.741 372.932 149.9C376.337 148.06 380.146 147.098 384.016 147.1C389.16 147.101 394.16 148.803 398.236 151.942C402.311 155.081 405.234 159.48 406.548 164.454C412.911 158.572 421.261 155.31 429.926 155.323C434.15 155.318 438.338 156.09 442.282 157.602C445.334 152.451 449.676 148.184 454.878 145.221C460.081 142.258 465.966 140.702 471.953 140.705C480.666 140.705 489.055 144.003 495.436 149.934C501.817 155.866 505.716 163.993 506.352 172.682H506.443C511.456 172.674 516.336 174.29 520.353 177.288C521.06 172.334 523.53 167.8 527.311 164.52C531.091 161.24 535.928 159.435 540.933 159.434C546.186 159.427 551.246 161.416 555.088 164.999C557.402 154.854 563.092 145.796 571.226 139.307C579.361 132.819 589.457 129.285 599.863 129.284C599.746 129.518 599.868 153.758 599.954 177.269L600.091 177.25V275.009H-277.457Z" fill="#103B43"/>
</g>
</svg>
