<svg xmlns="http://www.w3.org/2000/svg" viewBox="0 0 66.4 67.91"><defs><style>.cls-1{fill:none;stroke:#009191;stroke-linecap:round;stroke-linejoin:round;stroke-width:1.39px;}</style></defs><g><g><line class="cls-1" x1="62.36" y1="52.29" x2="57.92" y2="52.29"/><line class="cls-1" x1="62.36" y1="56.73" x2="51.4" y2="56.73"/><line class="cls-1" x1="62.36" y1="61.18" x2="51.4" y2="61.18"/><polyline class="cls-1" points="26.09 21.18 22.11 25.15 25.66 28.71"/><line class="cls-1" x1="34.26" y1="21.18" x2="29.23" y2="28.71"/><polyline class="cls-1" points="37.46 28.71 41.44 24.73 37.88 21.18"/><path class="cls-1" d="M6.92,67.22V56.14a6,6,0,0,1,3.83-5.6l9.8-3.79"/><line class="cls-1" x1="50.37" y1="49.55" x2="43.19" y2="46.75"/><polygon class="cls-1" points="23.25 42.33 20.11 45.64 26.06 54.75 31.65 48.6 23.25 42.33"/><polygon class="cls-1" points="40.3 42.33 43.46 45.64 37.48 54.75 31.86 48.6 40.3 42.33"/><line class="cls-1" x1="31.65" y1="48.6" x2="31.65" y2="66.69"/><line class="cls-1" x1="15.65" y1="59.12" x2="15.65" y2="67.22"/><polygon class="cls-1" points="47.65 67.22 47.65 52.62 54.58 45.7 65.69 45.7 65.69 67.22 47.65 67.22"/><line class="cls-1" x1="24.1" y1="42.96" x2="24.89" y2="38.31"/><line class="cls-1" x1="39.45" y1="42.96" x2="38.33" y2="38.33"/><path class="cls-1" d="M42.06,16.45c-6.35-5.58-20.5-2.68-20.5-2.68V19"/><path class="cls-1" d="M49,.69H24.49S9.4,2.9,16.77,20v4.43a15,15,0,0,0,15,15h0a15,15,0,0,0,15-15V20l1-2.73A20.78,20.78,0,0,0,49,10Z"/><polyline class="cls-1" points="54.58 46.15 54.58 52.67 48.21 52.67"/><line class="cls-1" x1="0.69" y1="1.18" x2="7.47" y2="1.18"/><line class="cls-1" x1="9.58" y1="1.18" x2="11.15" y2="1.18"/><line class="cls-1" x1="0.69" y1="5.62" x2="11.15" y2="5.62"/><line class="cls-1" x1="11.15" y1="10.07" x2="5.47" y2="10.07"/><line class="cls-1" x1="2.97" y1="10.07" x2="0.69" y2="10.07"/><line class="cls-1" x1="65.7" y1="10.07" x2="58.92" y2="10.07"/><line class="cls-1" x1="56.81" y1="10.07" x2="56.03" y2="10.07"/><line class="cls-1" x1="65.7" y1="5.62" x2="56.03" y2="5.62"/><line class="cls-1" x1="56.03" y1="1.18" x2="60.92" y2="1.18"/><line class="cls-1" x1="63.42" y1="1.18" x2="65.7" y2="1.18"/><line class="cls-1" x1="0.69" y1="23.18" x2="4.47" y2="23.18"/><line class="cls-1" x1="6.58" y1="23.18" x2="11.15" y2="23.18"/><line class="cls-1" x1="0.69" y1="27.62" x2="11.15" y2="27.62"/><line class="cls-1" x1="11.15" y1="32.07" x2="10.12" y2="32.07"/><line class="cls-1" x1="7.62" y1="32.07" x2="0.69" y2="32.07"/><line class="cls-1" x1="65.7" y1="32.07" x2="59.98" y2="32.07"/><line class="cls-1" x1="57.87" y1="32.07" x2="56.03" y2="32.07"/><line class="cls-1" x1="65.7" y1="27.62" x2="56.03" y2="27.62"/><line class="cls-1" x1="56.03" y1="23.18" x2="61.59" y2="23.18"/><line class="cls-1" x1="64.09" y1="23.18" x2="65.7" y2="23.18"/></g></g></svg>