<svg xmlns="http://www.w3.org/2000/svg" viewBox="0 0 98.78 99.81"><g><g><circle cx="65.05" cy="61.77" r="5.18" style="fill:#7ce8dd"/><circle cx="51.49" cy="93.61" r="5.18" style="fill:#7ce8dd"/><circle cx="6.2" cy="56.02" r="5.18" style="fill:#7ce8dd"/><path d="M6.21,50.18c0-.34,0-.68,0-1a44.26,44.26,0,0,1,7.43-24.61,65.52,65.52,0,0,1,6.72-8.1" style="fill:none;stroke:#009191;stroke-linecap:round;stroke-linejoin:round;stroke-width:2.04621067780437px"/><path d="M46,93.36A44.48,44.48,0,0,1,7.85,61.19" style="fill:none;stroke:#009191;stroke-linecap:round;stroke-linejoin:round;stroke-width:2.04621067780437px"/><path d="M90,69.81A44.45,44.45,0,0,1,57.23,93.12" style="fill:none;stroke:#009191;stroke-linecap:round;stroke-linejoin:round;stroke-width:2.04621067780437px"/><path d="M93.83,38.54a44.92,44.92,0,0,1,.07,20.92" style="fill:none;stroke:#009191;stroke-linecap:round;stroke-linejoin:round;stroke-width:2.04621067780437px"/><path d="M54.68,38.54a5.18,5.18,0,0,1-10.36,0" style="fill:none;stroke:#009191;stroke-linecap:round;stroke-linejoin:round;stroke-width:2.04621067780437px"/><circle cx="37.54" cy="63.42" r="5.18" style="fill:none;stroke:#009191;stroke-linecap:round;stroke-linejoin:round;stroke-width:2.04621067780437px"/><circle cx="65.05" cy="61.77" r="5.18" style="fill:none;stroke:#009191;stroke-linecap:round;stroke-linejoin:round;stroke-width:2.04621067780437px"/><circle cx="51.49" cy="93.61" r="5.18" style="fill:none;stroke:#009191;stroke-linecap:round;stroke-linejoin:round;stroke-width:2.04621067780437px"/><circle cx="92.58" cy="64.64" r="5.18" style="fill:none;stroke:#009191;stroke-linecap:round;stroke-linejoin:round;stroke-width:2.04621067780437px"/><circle cx="6.2" cy="56.02" r="5.18" style="fill:none;stroke:#009191;stroke-linecap:round;stroke-linejoin:round;stroke-width:2.04621067780437px"/><line x1="22.98" y1="36.38" x2="9.45" y2="52.01" style="fill:none;stroke:#009191;stroke-linecap:round;stroke-linejoin:round;stroke-width:2.04621067780437px"/><line x1="11.22" y1="57.26" x2="32.36" y2="63.03" style="fill:none;stroke:#009191;stroke-linecap:round;stroke-linejoin:round;stroke-width:2.04621067780437px"/><line x1="39.61" y1="58.67" x2="47.22" y2="43.18" style="fill:none;stroke:#009191;stroke-linecap:round;stroke-linejoin:round;stroke-width:2.04621067780437px"/><line x1="52.29" y1="42.89" x2="62.17" y2="57.47" style="fill:none;stroke:#009191;stroke-linecap:round;stroke-linejoin:round;stroke-width:2.04621067780437px"/><line x1="74.52" y1="38.95" x2="67.94" y2="57.47" style="fill:none;stroke:#009191;stroke-linecap:round;stroke-linejoin:round;stroke-width:2.04621067780437px"/><line x1="62.8" y1="66.95" x2="53.84" y2="88.43" style="fill:none;stroke:#009191;stroke-linecap:round;stroke-linejoin:round;stroke-width:2.04621067780437px"/><line x1="49.5" y1="88.83" x2="39.61" y2="68.6" style="fill:none;stroke:#009191;stroke-linecap:round;stroke-linejoin:round;stroke-width:2.04621067780437px"/><line x1="70.23" y1="63.42" x2="87.4" y2="64.64" style="fill:none;stroke:#009191;stroke-linecap:round;stroke-linejoin:round;stroke-width:2.04621067780437px"/><rect x="27.02" y="1.02" width="64.07" height="31.81" style="fill:none;stroke:#009191;stroke-linecap:round;stroke-linejoin:round;stroke-width:2.04621067780437px"/><path d="M34,7.88V26h7.66a5,5,0,0,0,5-5V12.84a5,5,0,0,0-5-5H39.36" style="fill:none;stroke:#009191;stroke-linecap:round;stroke-linejoin:round;stroke-width:2.04621067780437px"/><polyline points="53.31 25.98 53.31 7.88 65.8 25.98 65.8 7.88" style="fill:none;stroke:#009191;stroke-linecap:round;stroke-linejoin:round;stroke-width:2.04621067780437px"/><path d="M84.87,7.88H76.1a3.38,3.38,0,0,0-3.38,3.39v2.27a3.38,3.38,0,0,0,3.38,3.39h5.38a3.38,3.38,0,0,1,3.39,3.38v2.28A3.39,3.39,0,0,1,81.48,26H72.72" style="fill:none;stroke:#009191;stroke-linecap:round;stroke-linejoin:round;stroke-width:2.04621067780437px"/></g></g></svg>