<svg xmlns="http://www.w3.org/2000/svg" width="1920" height="436" viewBox="0 0 1920 436"><g transform="translate(0 -17819)"><path d="M-2081,436V1.951A136.337,136.337,0,0,1-2058,0a135.1,135.1,0,0,1,38.674,5.621A134.36,134.36,0,0,1-1985.034,21.4a135.6,135.6,0,0,1,28.284,24.306A135.126,135.126,0,0,1-1936.1,76.911a51.729,51.729,0,0,1,11.491-4.371A52.235,52.235,0,0,1-1912,71a51.8,51.8,0,0,1,18.472,3.376,51.824,51.824,0,0,1,15.553,9.3,51.548,51.548,0,0,1,6.444-16.54,52.11,52.11,0,0,1,11.4-13.212,51.812,51.812,0,0,1,15.22-8.754A51.835,51.835,0,0,1-1827,42a51.889,51.889,0,0,1,17.208,2.914A51.805,51.805,0,0,1-1795.015,53a52.164,52.164,0,0,1,11.356,12.26,51.657,51.657,0,0,1,6.943,15.445,92.654,92.654,0,0,1,27.391-15.93A92.687,92.687,0,0,1-1717,59a92.863,92.863,0,0,1,30.024,4.953,92.627,92.627,0,0,1,25.944,13.767,93.317,93.317,0,0,1,20.226,20.941,92.5,92.5,0,0,1,12.869,26.478A39.9,39.9,0,0,1-1615,123a39.728,39.728,0,0,1,23.256,7.451,39.922,39.922,0,0,1,13.011-25.206,39.874,39.874,0,0,1,12.169-7.51A39.813,39.813,0,0,1-1552,95a39.965,39.965,0,0,1,12.478,1.984,39.817,39.817,0,0,1,10.87,5.533,63.731,63.731,0,0,1,9.116-17.474,64.264,64.264,0,0,1,13.843-13.773,63.734,63.734,0,0,1,17.527-9.029A63.944,63.944,0,0,1-1468,59a63.821,63.821,0,0,1,21.456,3.686A63.733,63.733,0,0,1-1428.179,72.9a64.225,64.225,0,0,1,14,15.46,63.568,63.568,0,0,1,8.362,19.439A79.485,79.485,0,0,1-1389,106a78.551,78.551,0,0,1,44.825,13.939,79.343,79.343,0,0,1,16.884,15.731,78.841,78.841,0,0,1,11.694,20.067,40.145,40.145,0,0,1,14.47-15.709A39.889,39.889,0,0,1-1280,134a40.205,40.205,0,0,1,8.9.994,39.766,39.766,0,0,1,8.2,2.834,40,40,0,0,1,7.28,4.457,40.308,40.308,0,0,1,6.144,5.86,72.257,72.257,0,0,1,21.884-13.307A72.193,72.193,0,0,1-1201.5,130a72.143,72.143,0,0,1,40.414,12.3,72.844,72.844,0,0,1,15.392,13.915,72.458,72.458,0,0,1,10.881,17.793c.282-.005.555-.008.814-.008a40.208,40.208,0,0,1,9.391,1.109,39.812,39.812,0,0,1,8.6,3.154,40.076,40.076,0,0,1,7.54,4.94,40.335,40.335,0,0,1,6.226,6.469,64.377,64.377,0,0,1,22.957-22.942,63.646,63.646,0,0,1,15.282-6.446A64.165,64.165,0,0,1-1047,158a64.233,64.233,0,0,1,16.276,2.088A63.65,63.65,0,0,1-1015.994,166,64.486,64.486,0,0,1-993.3,187.165a67.415,67.415,0,0,1,10.5-11.987,67.266,67.266,0,0,1,13.062-9.2,66.632,66.632,0,0,1,15.1-5.9A67.253,67.253,0,0,1-938,158a67.348,67.348,0,0,1,15.479,1.8,66.7,66.7,0,0,1,14.2,5.117,40.27,40.27,0,0,1,6.127-5.768,40.1,40.1,0,0,1,7.239-4.384A39.647,39.647,0,0,1-878,151a39.817,39.817,0,0,1,22.114,6.664,40.14,40.14,0,0,1,8.464,7.546,40.015,40.015,0,0,1,6.038,9.661,44.779,44.779,0,0,1,6.9-6.971,44.561,44.561,0,0,1,8.3-5.317,44.223,44.223,0,0,1,9.419-3.39A44.713,44.713,0,0,1-806.5,158a44.632,44.632,0,0,1,11.648,1.54,44.276,44.276,0,0,1,10.493,4.351A78.893,78.893,0,0,1-758.4,114.874,78.729,78.729,0,0,1-734.507,100.3,78.649,78.649,0,0,1-706,95a79.393,79.393,0,0,1,18.452,2.166,78.6,78.6,0,0,1,16.9,6.164,79.174,79.174,0,0,1,14.842,9.661,79.585,79.585,0,0,1,12.284,12.654,39.807,39.807,0,0,1,10.94-5.626A39.945,39.945,0,0,1-620,118a39.74,39.74,0,0,1,15.667,3.184,39.869,39.869,0,0,1,12.765,8.679,79.307,79.307,0,0,1,9.775-25.721A80.169,80.169,0,0,1-564.26,83.577a79.7,79.7,0,0,1,23.521-13.638A79.745,79.745,0,0,1-513,65a80.132,80.132,0,0,1,21.831,3.016,79.651,79.651,0,0,1,19.531,8.493,72.509,72.509,0,0,1,9.72-21.749,73.236,73.236,0,0,1,15.945-17.267A72.681,72.681,0,0,1-425.2,26.106,72.825,72.825,0,0,1-401,22a72.653,72.653,0,0,1,40.559,12.3,73.349,73.349,0,0,1,15.476,13.916,72.965,72.965,0,0,1,10.984,17.8A40.181,40.181,0,0,1-325,65a39.693,39.693,0,0,1,16.431,3.52,40.016,40.016,0,0,1,7.074,4.111,40.362,40.362,0,0,1,6.059,5.424,135.339,135.339,0,0,1,10.492-18.535,136,136,0,0,1,16.485-19.98A135.976,135.976,0,0,1-248.48,23.056a134.973,134.973,0,0,1,22.932-12.447,134.328,134.328,0,0,1,25.34-7.867A136,136,0,0,1-173,0c3.992,0,8.03.176,12,.526V269.474q-.5.044-1,.084V436Z" transform="translate(2081 17819)" fill="#147271"/><path d="M-1938,324V264.4c-.009-43.791-.1-261.688-1-264.4a137.381,137.381,0,0,1,126.118,83.282A54.117,54.117,0,0,1-1801.144,82a53.873,53.873,0,0,1,44.753,23.841A63.118,63.118,0,0,1-1727.72,99a63.257,63.257,0,0,1,47.936,21.911A74.424,74.424,0,0,1-1612.84,79a74.434,74.434,0,0,1,67.7,43.507A101.867,101.867,0,0,1-1497.96,111a101.848,101.848,0,0,1,52.534,14.5A102.456,102.456,0,0,1-1344.12,38a102.356,102.356,0,0,1,89.9,53.388A60.265,60.265,0,0,1-1234.235,88a60.12,60.12,0,0,1,36.109,11.981A60.168,60.168,0,0,1-1158.313,85a60.471,60.471,0,0,1,60.187,54.962A60.336,60.336,0,0,1-1079.4,137a60.278,60.278,0,0,1,45.969,21.223A60.447,60.447,0,0,1-978.5,123a60.34,60.34,0,0,1,48.985,25.057A65.145,65.145,0,0,1-886.6,132a65.393,65.393,0,0,1,56.676,32.746,45.433,45.433,0,0,1,25.868-15.781q-.129-1.716-.129-3.465A45.476,45.476,0,0,1-758.73,100a45.322,45.322,0,0,1,14.692,2.43A76.546,76.546,0,0,1-695.3,85a76.746,76.746,0,0,1,59.718,28.464A78.451,78.451,0,0,1-561.935,62a78.165,78.165,0,0,1,27.79,5.072A50.888,50.888,0,0,1-491.507,44a50.978,50.978,0,0,1,49.273,37.989A75.1,75.1,0,0,1-391.113,62a75.194,75.194,0,0,1,27.019,4.989A75.367,75.367,0,0,1-299.209,30a75.461,75.461,0,0,1,75.224,70h.2a50.684,50.684,0,0,1,30.417,10.084,45.479,45.479,0,0,1,45-39.083,45.27,45.27,0,0,1,30.955,12.182A100.456,100.456,0,0,1-19.5,5c-.256.513.013,53.574.2,105.042L-19,110V324Z" transform="translate(1939 17931)" fill="#188381"/></g></svg>