<svg xmlns="http://www.w3.org/2000/svg" viewBox="0 0 473.96 461.92"><g><g><path d="M261,142.35v140a18.58,18.58,0,0,1-18.58,18.58H228v37.19l-23.24-17.93-23.24,17.93V300.89H29.75a18.58,18.58,0,0,1-18.58-18.58v-140a18.58,18.58,0,0,1,18.58-18.58H242.42A18.58,18.58,0,0,1,261,142.35Z" style="fill:#f2f2f2;opacity:0.5"/><path d="M157.6,291H15.53A14.81,14.81,0,0,1,.72,276.15V128.65a14.81,14.81,0,0,1,14.81-14.81H235.74a14.81,14.81,0,0,1,14.81,14.81v147.5A14.81,14.81,0,0,1,235.74,291H232" style="fill:#fff;stroke:#009191;stroke-linecap:round;stroke-linejoin:round;stroke-width:1.44775886859624px"/><polyline points="143.34 267.72 48.92 267.72 24.92 243.73 24.92 162.87 50.63 137.16 203.97 137.16 227.65 160.83 227.65 202.66" style="fill:none;stroke:#009191;stroke-linecap:round;stroke-linejoin:round;stroke-width:1.44775886859624px"/><rect x="61.77" y="161.16" width="127.25" height="17.7" style="fill:none;stroke:#009191;stroke-linecap:round;stroke-linejoin:round;stroke-width:1.44775886859624px"/><line x1="220.21" y1="137.58" x2="227.65" y2="137.58" style="fill:none;stroke:#009191;stroke-linecap:round;stroke-linejoin:round;stroke-width:1.44775886859624px"/><line x1="25.51" y1="137.58" x2="32.95" y2="137.58" style="fill:none;stroke:#009191;stroke-linecap:round;stroke-linejoin:round;stroke-width:1.44775886859624px"/><line x1="61.59" y1="202.4" x2="69.03" y2="202.4" style="fill:none;stroke:#009191;stroke-linecap:round;stroke-linejoin:round;stroke-width:1.44775886859624px"/><line x1="79.01" y1="202.4" x2="86.44" y2="202.4" style="fill:none;stroke:#009191;stroke-linecap:round;stroke-linejoin:round;stroke-width:1.44775886859624px"/><line x1="25.51" y1="267.72" x2="32.95" y2="267.72" style="fill:none;stroke:#009191;stroke-linecap:round;stroke-linejoin:round;stroke-width:1.44775886859624px"/><line x1="61.77" y1="221.25" x2="143.1" y2="221.25" style="fill:none;stroke:#009191;stroke-linecap:round;stroke-linejoin:round;stroke-width:1.44775886859624px"/><polyline points="171.55 245.13 171.55 328.07 194.79 310.14 218.03 328.07 218.03 245.13" style="fill:#7ce8dd"/><circle cx="194.79" cy="249.13" r="37.18" style="fill:#00baba"/><circle cx="194.79" cy="249.13" r="19.72" style="fill:#009f9f"/><path d="M381,435.93H309.48a14.81,14.81,0,0,1-14.81-14.81V273.62a14.81,14.81,0,0,1,14.81-14.81H459.15A14.81,14.81,0,0,1,474,273.62v147.5a14.81,14.81,0,0,1-14.81,14.81h-3.77" style="fill:#f2f2f2;opacity:0.5"/><path d="M369.37,424.81H297.85A14.82,14.82,0,0,1,283,410V262.5a14.82,14.82,0,0,1,14.82-14.81H447.51a14.81,14.81,0,0,1,14.81,14.81V410a14.81,14.81,0,0,1-14.81,14.81h-3.77" style="fill:#fff;stroke:#009191;stroke-linecap:round;stroke-linejoin:round;stroke-width:1.44775886859624px"/><polyline points="355.11 401.57 331.23 401.57 307.23 377.57 307.23 296.72 332.94 271.01 415.74 271.01 439.42 294.68 439.42 336.5" style="fill:none;stroke:#009191;stroke-linecap:round;stroke-linejoin:round;stroke-width:1.44775886859624px"/><rect x="326.08" y="295.01" width="94.71" height="17.7" style="fill:none;stroke:#009191;stroke-linecap:round;stroke-linejoin:round;stroke-width:1.44775886859624px"/><line x1="431.98" y1="271.43" x2="439.42" y2="271.43" style="fill:none;stroke:#009191;stroke-linecap:round;stroke-linejoin:round;stroke-width:1.44775886859624px"/><line x1="307.82" y1="271.43" x2="315.26" y2="271.43" style="fill:none;stroke:#009191;stroke-linecap:round;stroke-linejoin:round;stroke-width:1.44775886859624px"/><line x1="343.9" y1="336.25" x2="351.34" y2="336.25" style="fill:none;stroke:#009191;stroke-linecap:round;stroke-linejoin:round;stroke-width:1.44775886859624px"/><line x1="361.32" y1="336.25" x2="368.75" y2="336.25" style="fill:none;stroke:#009191;stroke-linecap:round;stroke-linejoin:round;stroke-width:1.44775886859624px"/><line x1="307.82" y1="401.57" x2="315.26" y2="401.57" style="fill:none;stroke:#009191;stroke-linecap:round;stroke-linejoin:round;stroke-width:1.44775886859624px"/><line x1="344.08" y1="355.09" x2="354.87" y2="355.09" style="fill:none;stroke:#009191;stroke-linecap:round;stroke-linejoin:round;stroke-width:1.44775886859624px"/><polyline points="383.32 378.98 383.32 461.92 406.56 443.99 429.79 461.92 429.79 378.98" style="fill:#7ce8dd"/><circle cx="406.56" cy="382.98" r="37.18" style="fill:#00baba"/><circle cx="406.56" cy="382.98" r="19.72" style="fill:#009f9f"/><path d="M474,26.66v147.5A14.81,14.81,0,0,1,459.15,189H439.8v36L416.56,207,393.32,225V189H309.49a14.81,14.81,0,0,1-14.81-14.81V26.66a14.81,14.81,0,0,1,14.81-14.81H459.15A14.81,14.81,0,0,1,474,26.66Z" style="fill:#f2f2f2;opacity:0.5"/><path d="M369.37,177.85H297.85A14.82,14.82,0,0,1,283,163V15.53A14.82,14.82,0,0,1,297.85.72H447.51a14.81,14.81,0,0,1,14.81,14.81V163a14.81,14.81,0,0,1-14.81,14.81h-3.77" style="fill:#fff;stroke:#009191;stroke-linecap:round;stroke-linejoin:round;stroke-width:1.44775886859624px"/><polyline points="383.32 132.01 383.32 214.96 406.56 197.03 429.79 214.96 429.79 132.01" style="fill:#7ce8dd"/><polyline points="355.11 154.61 331.23 154.61 307.23 130.61 307.23 49.75 332.94 24.04 415.74 24.04 439.42 47.72 439.42 89.54" style="fill:none;stroke:#009191;stroke-linecap:round;stroke-linejoin:round;stroke-width:1.44775886859624px"/><rect x="344.08" y="48.04" width="56.71" height="17.7" style="fill:none;stroke:#009191;stroke-linecap:round;stroke-linejoin:round;stroke-width:1.44775886859624px"/><line x1="431.98" y1="24.47" x2="439.42" y2="24.47" style="fill:none;stroke:#009191;stroke-linecap:round;stroke-linejoin:round;stroke-width:1.44775886859624px"/><line x1="307.82" y1="24.47" x2="315.26" y2="24.47" style="fill:none;stroke:#009191;stroke-linecap:round;stroke-linejoin:round;stroke-width:1.44775886859624px"/><line x1="343.9" y1="89.29" x2="351.34" y2="89.29" style="fill:none;stroke:#009191;stroke-linecap:round;stroke-linejoin:round;stroke-width:1.44775886859624px"/><line x1="361.32" y1="89.29" x2="368.75" y2="89.29" style="fill:none;stroke:#009191;stroke-linecap:round;stroke-linejoin:round;stroke-width:1.44775886859624px"/><line x1="307.82" y1="154.61" x2="315.26" y2="154.61" style="fill:none;stroke:#009191;stroke-linecap:round;stroke-linejoin:round;stroke-width:1.44775886859624px"/><line x1="344.08" y1="108.13" x2="354.87" y2="108.13" style="fill:none;stroke:#009191;stroke-linecap:round;stroke-linejoin:round;stroke-width:1.44775886859624px"/><circle cx="406.56" cy="136.02" r="37.18" style="fill:#00baba"/><circle cx="406.56" cy="136.02" r="19.72" style="fill:#009f9f"/></g></g></svg>