<svg xmlns="http://www.w3.org/2000/svg" viewBox="0 0 448.87 61.07"><g><g><g style="opacity:0.5"><path d="M7.37,58.89V58a1.56,1.56,0,0,1,1.56-1.56H32a1.55,1.55,0,0,0,1.56-1.55V33a1.55,1.55,0,0,1,1.55-1.56H45.38a1.56,1.56,0,0,0,1.56-1.56V6.85A1.55,1.55,0,0,1,48.5,5.3h8.41a1.55,1.55,0,0,1,1.56,1.55V29.91A1.56,1.56,0,0,0,60,31.47h5a1.56,1.56,0,0,0,1.56-1.56V23.68a1.56,1.56,0,0,1,1.56-1.56h.93a1.56,1.56,0,0,0,1.56-1.56V18.69a1.55,1.55,0,0,1,1.56-1.55H95.55a1.55,1.55,0,0,1,1.56,1.55v1.87a1.55,1.55,0,0,0,1.55,1.56h.94a1.56,1.56,0,0,1,1.56,1.56v6.23a1.55,1.55,0,0,0,1.55,1.56h12.47a1.55,1.55,0,0,0,1.55-1.56V14a1.56,1.56,0,0,1,1.56-1.56h5A1.56,1.56,0,0,1,124.84,14V29.91a1.55,1.55,0,0,0,1.55,1.56h4.68a1.55,1.55,0,0,0,1.55-1.56V6.85a1.55,1.55,0,0,1,1.56-1.55h.31a1.56,1.56,0,0,0,1.56-1.56V3.12a1.56,1.56,0,0,1,1.56-1.56h23.68a1.56,1.56,0,0,1,1.56,1.56v.62a1.56,1.56,0,0,0,1.56,1.56h.31a1.54,1.54,0,0,1,1.55,1.55V14a1.56,1.56,0,0,0,1.56,1.56h5.92a1.56,1.56,0,0,1,1.56,1.56v7.47a1.56,1.56,0,0,0,1.56,1.56h14a1.56,1.56,0,0,1,1.56,1.56v3.12A1.54,1.54,0,0,0,194,32.4h23.06a1.55,1.55,0,0,0,1.56-1.55V14.21a1.56,1.56,0,0,1,1.56-1.56h7.47a1.55,1.55,0,0,0,1.56-1.55V8.92a1.56,1.56,0,0,1,1.56-1.56H233a1.56,1.56,0,0,1,1.56,1.56V11.1a1.55,1.55,0,0,0,1.56,1.55h7.47a1.56,1.56,0,0,1,1.56,1.56v3.55a1.56,1.56,0,0,0,1.56,1.56h5.61a1.56,1.56,0,0,1,1.56,1.56v5a1.55,1.55,0,0,0,1.55,1.56h31.16a1.56,1.56,0,0,0,1.56-1.56V4.05a1.56,1.56,0,0,1,1.56-1.56h34.58a1.56,1.56,0,0,1,1.56,1.56v7.17a1.55,1.55,0,0,0,1.56,1.55H350.1a1.56,1.56,0,0,1,1.56,1.56v5.61a1.56,1.56,0,0,0,1.56,1.56h9.34a1.56,1.56,0,0,0,1.56-1.56V4.67a1.55,1.55,0,0,1,1.56-1.55h1.87a1.56,1.56,0,0,0,1.56-1.56h0A1.56,1.56,0,0,1,370.67,0h8.1a1.55,1.55,0,0,1,1.55,1.56h0a1.56,1.56,0,0,0,1.56,1.56h1.25a1.55,1.55,0,0,1,1.56,1.55V19.94a1.55,1.55,0,0,0,1.55,1.56h9.66a1.56,1.56,0,0,1,1.56,1.56v8.1A1.56,1.56,0,0,0,399,32.72h9.66a1.55,1.55,0,0,0,1.55-1.56V29.29a1.56,1.56,0,0,1,1.56-1.56h4.36a1.56,1.56,0,0,1,1.56,1.56V38a1.56,1.56,0,0,0,1.56,1.56h12.15A1.56,1.56,0,0,1,433,41.13V53.59a1.56,1.56,0,0,0,1.56,1.56h8.1a1.56,1.56,0,0,1,1.56,1.56v2.8a1.56,1.56,0,0,1-1.56,1.56H8.93a1.56,1.56,0,0,1-1.56-1.56Z" style="fill:#00afaa"/></g><path d="M442.85,61H1A1,1,0,0,1,0,60v-6.4a1,1,0,0,1,1-1h14.3a1,1,0,0,0,.95-1V47a1,1,0,0,1,.95-1H27.3a1,1,0,0,0,.95-.95V27a1,1,0,0,1,.95-.95h8.07a1,1,0,0,1,.95.95v18a1,1,0,0,0,1,.95h9.31a1,1,0,0,0,1-.95V37.41a1,1,0,0,1,1-1h.33a.94.94,0,0,0,1-1v-.39a1,1,0,0,1,1-1H65a1,1,0,0,1,1,1v.39a1,1,0,0,0,1,1h0a1,1,0,0,1,.95,1v7.44a1,1,0,0,0,1,.95h2.46a1,1,0,0,0,1-.95V32.73a1,1,0,0,1,.95-.95h5.26a1,1,0,0,1,1,.95V45.47a.94.94,0,0,0,1,1h.27a1,1,0,0,0,1-1V42.7a1,1,0,0,1,1-1h4.64a1,1,0,0,0,.95-1V34.6a1,1,0,0,1,1-1h7.76a1,1,0,0,1,1,1v9.31a1,1,0,0,0,1,1h8.38a1,1,0,0,0,1-1V23.07a1,1,0,0,1,.95-.95h3.4a1,1,0,0,0,1-.95V20a.94.94,0,0,1,1-.95h25.51a1,1,0,0,1,1,.95V22.1a1,1,0,0,0,1,1h2.14a1,1,0,0,1,1,1V45.16a.94.94,0,0,0,.95,1h3.7a.94.94,0,0,0,.95-1v-3.7a1,1,0,0,1,1-1h3.39a1,1,0,0,1,1,1v3.7a1,1,0,0,0,.95,1h3.71a1,1,0,0,0,.95-1V38.65a1,1,0,0,1,1-.95H172.8a1,1,0,0,1,.95.95V48a1,1,0,0,0,.95,1H185a1,1,0,0,0,1-1V11.23a1,1,0,0,1,1-1h1.83a.94.94,0,0,0,.95-.95V9.05a1,1,0,0,1,1-1h4a1,1,0,0,1,.95,1v.59a1,1,0,0,0,.95.95H198a1,1,0,0,1,1,1V40.49a1,1,0,0,0,.95.95H210.5a1,1,0,0,0,.95-.95V24.94a1,1,0,0,1,1-1H223a1,1,0,0,1,1,1v9a1,1,0,0,0,1,1h26.45a1,1,0,0,1,1,1v9.62a.94.94,0,0,0,.95,1h10.56a1,1,0,0,0,1-1V19.33a1,1,0,0,1,.95-.95h12.43a1,1,0,0,1,.95.95V39.55a1,1,0,0,0,1,1h8.06a1,1,0,0,1,.95,1V46.1a1,1,0,0,0,1,.95h8.06a1,1,0,0,0,.95-.95V42.39a1,1,0,0,1,1-1H303a1,1,0,0,0,.95-.95v-13a1,1,0,0,1,.95-1h4a1,1,0,0,0,1-.95V23.39a1,1,0,0,1,.95-1h24a1,1,0,0,1,.95,1v2.14a1,1,0,0,0,1,.95h3.71a1,1,0,0,1,.95,1V42.36a1,1,0,0,0,.95,1h3.08a.94.94,0,0,1,.95.95v3.08a1,1,0,0,0,.95.95h4.33a.94.94,0,0,0,.95-.95V37.41a1,1,0,0,1,1-1H380a1,1,0,0,1,.95,1V42a1,1,0,0,0,.95,1h22.71a.94.94,0,0,1,.95,1v6.51a1,1,0,0,0,.95.95h11.81a1,1,0,0,0,.95-.95V47.69a1,1,0,0,1,1-.95h6.2a.94.94,0,0,1,.95.95v2.77a1,1,0,0,0,.95.95h8.38a1,1,0,0,1,.95,1v3.71a1,1,0,0,0,1,1h9.31a1,1,0,0,1,.95.95v2a1,1,0,0,1-.95,1Z" style="fill:#00a09c"/></g></g></svg>