<svg xmlns="http://www.w3.org/2000/svg" viewBox="0 0 47.02 63.67"><g><g><rect x="0.54" y="25.64" width="45.93" height="37.48" rx="6.24" ry="6.24" style="fill:none;stroke:#009191;stroke-linecap:round;stroke-linejoin:round;stroke-width:1.08929325123859px"/><line x1="41.16" y1="54.13" x2="41.16" y2="63.05" style="fill:none;stroke:#009191;stroke-linecap:round;stroke-linejoin:round;stroke-width:1.08929325123859px"/><line x1="41.16" y1="48.14" x2="41.16" y2="50.17" style="fill:none;stroke:#009191;stroke-linecap:round;stroke-linejoin:round;stroke-width:1.08929325123859px"/><path d="M29.77,41.24a6.25,6.25,0,0,1-3.42,5.58v6.4a2.82,2.82,0,0,1-2.82,2.83h0a2.82,2.82,0,0,1-2.83-2.83V46.84a6.26,6.26,0,1,1,9.07-5.6Z" style="fill:#7ce8dd"/><path d="M41.73,25.73v-7.2a18,18,0,0,0-18-18h0a18,18,0,0,0-18,18v7.2" style="fill:none;stroke:#009191;stroke-linecap:round;stroke-linejoin:round;stroke-width:1.08929325123859px"/><path d="M34.75,25.64V18.09a11,11,0,0,0-11-11h0a11,11,0,0,0-11,11v7.55" style="fill:none;stroke:#009191;stroke-linecap:round;stroke-linejoin:round;stroke-width:1.08929325123859px"/></g></g></svg>