<svg xmlns="http://www.w3.org/2000/svg" viewBox="0 0 71.63 61.58"><g><g><path d="M44.84,50.56H4.73A4.19,4.19,0,0,1,.54,46.38V4.73A4.2,4.2,0,0,1,4.73.54H66.91a4.19,4.19,0,0,1,4.18,4.19V46.38a4.18,4.18,0,0,1-4.18,4.18H65.84" style="fill:none;stroke:#009191;stroke-linecap:round;stroke-linejoin:round;stroke-width:1.08929325123859px"/><polyline points="40.82 44 14.15 44 7.38 37.22 7.38 14.39 14.64 7.13 57.94 7.13 64.62 13.81 64.62 25.62" style="fill:none;stroke:#009191;stroke-linecap:round;stroke-linejoin:round;stroke-width:1.08929325123859px"/><rect x="17.78" y="13.91" width="35.93" height="5" style="fill:#00e8dd"/><line x1="62.52" y1="7.25" x2="64.62" y2="7.25" style="fill:none;stroke:#009191;stroke-linecap:round;stroke-linejoin:round;stroke-width:1.08929325123859px"/><line x1="7.54" y1="7.25" x2="9.64" y2="7.25" style="fill:none;stroke:#009191;stroke-linecap:round;stroke-linejoin:round;stroke-width:1.08929325123859px"/><line x1="17.73" y1="25.55" x2="19.83" y2="25.55" style="fill:none;stroke:#009191;stroke-linecap:round;stroke-linejoin:round;stroke-width:1.08929325123859px"/><line x1="22.65" y1="25.55" x2="24.75" y2="25.55" style="fill:none;stroke:#009191;stroke-linecap:round;stroke-linejoin:round;stroke-width:1.08929325123859px"/><line x1="7.54" y1="44" x2="9.64" y2="44" style="fill:none;stroke:#009191;stroke-linecap:round;stroke-linejoin:round;stroke-width:1.08929325123859px"/><line x1="17.78" y1="30.87" x2="40.75" y2="30.87" style="fill:none;stroke:#009191;stroke-linecap:round;stroke-linejoin:round;stroke-width:1.08929325123859px"/><circle cx="55.34" cy="38.75" r="5.57" style="fill:#00e8dd"/><circle cx="55.34" cy="38.75" r="10.5" style="fill:none;stroke:#009191;stroke-linecap:round;stroke-linejoin:round;stroke-width:1.08929325123859px"/><polyline points="48.78 52.25 48.78 61.04 55.34 55.98 61.9 61.04 61.9 47.12" style="fill:none;stroke:#009191;stroke-linecap:round;stroke-linejoin:round;stroke-width:1.08929325123859px"/></g></g></svg>