<svg xmlns="http://www.w3.org/2000/svg" viewBox="0 0 58.7 57.77"><g><g><path d="M52.17,57.22H7A6.43,6.43,0,0,1,.54,50.79V.54H46.19V11.82" style="fill:none;stroke:#009191;stroke-linecap:round;stroke-linejoin:round;stroke-width:1.08929325123859px"/><path d="M54.06,7.28H46.19V51.4A5.82,5.82,0,0,0,52,57.22h0a6.15,6.15,0,0,0,6.15-6.15V41.51" style="fill:none;stroke:#009191;stroke-linecap:round;stroke-linejoin:round;stroke-width:1.08929325123859px"/><path d="M58.16,38.53V11.37a4.1,4.1,0,0,0-4.1-4.09h0A4.09,4.09,0,0,0,50,11.37v31.3H46.19" style="fill:none;stroke:#009191;stroke-linecap:round;stroke-linejoin:round;stroke-width:1.08929325123859px"/><line x1="0.54" y1="22.62" x2="46.19" y2="22.62" style="fill:none;stroke:#009191;stroke-linecap:round;stroke-linejoin:round;stroke-width:1.08929325123859px"/><rect x="4.99" y="27.11" width="15.89" height="14.36" style="fill:#00e8dd"/><line x1="4.99" y1="51.67" x2="20.87" y2="51.67" style="fill:none;stroke:#009191;stroke-linecap:round;stroke-linejoin:round;stroke-width:1.08929325123859px"/><line x1="25.96" y1="46.73" x2="41.85" y2="46.73" style="fill:none;stroke:#009191;stroke-linecap:round;stroke-linejoin:round;stroke-width:1.08929325123859px"/><line x1="4.99" y1="46.73" x2="20.87" y2="46.73" style="fill:none;stroke:#009191;stroke-linecap:round;stroke-linejoin:round;stroke-width:1.08929325123859px"/><line x1="25.96" y1="51.67" x2="41.85" y2="51.67" style="fill:none;stroke:#009191;stroke-linecap:round;stroke-linejoin:round;stroke-width:1.08929325123859px"/><line x1="25.96" y1="36.85" x2="41.85" y2="36.85" style="fill:none;stroke:#009191;stroke-linecap:round;stroke-linejoin:round;stroke-width:1.08929325123859px"/><line x1="25.96" y1="41.79" x2="41.85" y2="41.79" style="fill:none;stroke:#009191;stroke-linecap:round;stroke-linejoin:round;stroke-width:1.08929325123859px"/><line x1="25.96" y1="26.97" x2="41.85" y2="26.97" style="fill:none;stroke:#009191;stroke-linecap:round;stroke-linejoin:round;stroke-width:1.08929325123859px"/><line x1="25.96" y1="31.91" x2="41.85" y2="31.91" style="fill:none;stroke:#009191;stroke-linecap:round;stroke-linejoin:round;stroke-width:1.08929325123859px"/><text transform="translate(3.54 13.87)" style="font-size:8.468910217285156px;fill:#009191;font-family:Ubuntu-Medium, Ubuntu Medium">HTTP v2.0</text></g></g></svg>