<svg xmlns="http://www.w3.org/2000/svg" viewBox="0 0 128.99 57.98"><g><g><line x1="3.84" y1="26.22" x2="55.58" y2="26.22" style="fill:none;stroke:#009191;stroke-linecap:round;stroke-linejoin:round;stroke-width:1.08929325123859px"/><line x1="3.9" y1="22.86" x2="6.28" y2="22.86" style="fill:none;stroke:#009191;stroke-linecap:round;stroke-linejoin:round;stroke-width:1.08929325123859px"/><line x1="9.19" y1="22.86" x2="11.57" y2="22.86" style="fill:none;stroke:#009191;stroke-linecap:round;stroke-linejoin:round;stroke-width:1.08929325123859px"/><line x1="14.48" y1="22.86" x2="16.85" y2="22.86" style="fill:none;stroke:#009191;stroke-linecap:round;stroke-linejoin:round;stroke-width:1.08929325123859px"/><rect x="0.54" y="19.03" width="58.49" height="38.4" rx="3.31" ry="3.31" style="fill:none;stroke:#009191;stroke-linecap:round;stroke-linejoin:round;stroke-width:1.08929325123859px"/><line x1="73.26" y1="26.22" x2="125" y2="26.22" style="fill:none;stroke:#009191;stroke-linecap:round;stroke-linejoin:round;stroke-width:1.08929325123859px"/><line x1="73.32" y1="22.86" x2="75.7" y2="22.86" style="fill:none;stroke:#009191;stroke-linecap:round;stroke-linejoin:round;stroke-width:1.08929325123859px"/><line x1="78.61" y1="22.86" x2="80.99" y2="22.86" style="fill:none;stroke:#009191;stroke-linecap:round;stroke-linejoin:round;stroke-width:1.08929325123859px"/><line x1="83.89" y1="22.86" x2="86.27" y2="22.86" style="fill:none;stroke:#009191;stroke-linecap:round;stroke-linejoin:round;stroke-width:1.08929325123859px"/><rect x="69.96" y="19.03" width="58.49" height="38.4" rx="3.31" ry="3.31" style="fill:none;stroke:#009191;stroke-linecap:round;stroke-linejoin:round;stroke-width:1.08929325123859px"/><path d="M33.4,14s7-13.5,30-13.5S92.9,14,92.9,14" style="fill:none;stroke:#009191;stroke-linecap:round;stroke-linejoin:round;stroke-width:1.08929325123859px"/><polyline points="84.45 10.85 92.9 14.04 91.37 4.86" style="fill:none;stroke:#009191;stroke-linecap:round;stroke-linejoin:round;stroke-width:1.08929325123859px"/><circle cx="29.79" cy="41.39" r="8.74" style="fill:none;stroke:#009191;stroke-linecap:round;stroke-linejoin:round;stroke-width:0.951897776652332px"/><rect x="89.46" y="39.6" width="19.49" height="11.91" rx="2.65" ry="2.65" style="fill:none;stroke:#009191;stroke-linecap:round;stroke-linejoin:round;stroke-width:1.08929325123859px"/><path d="M101,44.82a1.77,1.77,0,0,1-1,1.58v.81a.8.8,0,0,1-.8.8h0a.8.8,0,0,1-.8-.8V46.4A1.77,1.77,0,1,1,101,44.82Z" style="fill:#7ce8dd"/><path d="M106.43,39.28v-.85A7.13,7.13,0,0,0,99.3,31.3h0a7.13,7.13,0,0,0-7.12,7.13v.85" style="fill:none;stroke:#009191;stroke-linecap:round;stroke-linejoin:round;stroke-width:1.08929325123859px"/><path d="M104,39.6V38.39a4.67,4.67,0,0,0-4.67-4.67h0a4.67,4.67,0,0,0-4.67,4.67V39.6" style="fill:none;stroke:#009191;stroke-linecap:round;stroke-linejoin:round;stroke-width:1.08929325123859px"/></g></g></svg>