<svg xmlns="http://www.w3.org/2000/svg" viewBox="0 0 154.24 103.26"><g><g><path d="M21.19,97.83h0a5.43,5.43,0,0,0,5.42,5.43H129.3a5.43,5.43,0,0,0,5.42-5.43H21.19Z" style="fill:#7ce8dd"/><path d="M142.22,23.47h6.3a4.69,4.69,0,0,0,4.69-4.69h0a4.69,4.69,0,0,0-4.69-4.69h-1.58v-.4A6.66,6.66,0,0,0,140.28,7h-.39a6.66,6.66,0,0,0-6.66,6.66h-2.58a4.89,4.89,0,0,0-4.89,4.89h0a4.89,4.89,0,0,0,4.89,4.89h11.57Z" style="fill:#7ce8dd"/><path d="M125.76,18.58h0a4.89,4.89,0,0,1,4.89-4.89h2.58A6.66,6.66,0,0,1,139.89,7h.39a6.66,6.66,0,0,1,6.66,6.66v.4h1.58a4.69,4.69,0,0,1,4.69,4.69h0a4.69,4.69,0,0,1-4.69,4.69h-6.3" style="fill:none;stroke:#009191;stroke-linecap:round;stroke-linejoin:round;stroke-width:2.04651119626405px"/><path d="M57.08,1H99.22a6.08,6.08,0,0,1,6.08,6.08V97.83a0,0,0,0,1,0,0H51a0,0,0,0,1,0,0V7.11A6.08,6.08,0,0,1,57.08,1Z" style="fill:none;stroke:#009191;stroke-linecap:round;stroke-linejoin:round;stroke-width:2.04621067780437px"/><path d="M105.3,17.43h37.64a0,0,0,0,1,0,0v80.3a0,0,0,0,1,0,0h-33a4.61,4.61,0,0,1-4.61-4.61V17.43A0,0,0,0,1,105.3,17.43Z" transform="translate(248.24 115.15) rotate(180)" style="fill:none;stroke:#009191;stroke-linecap:round;stroke-linejoin:round;stroke-width:2.04621067780437px"/><path d="M13.35,17.43H51a0,0,0,0,1,0,0V93.11a4.61,4.61,0,0,1-4.61,4.61h-33a0,0,0,0,1,0,0V17.43A0,0,0,0,1,13.35,17.43Z" transform="translate(64.34 115.15) rotate(180)" style="fill:none;stroke:#009191;stroke-linecap:round;stroke-linejoin:round;stroke-width:2.04621067780437px"/><polyline points="50.99 26.56 91.22 26.56 91.22 30.27" style="fill:none;stroke:#009191;stroke-linecap:round;stroke-linejoin:round;stroke-width:2.04621067780437px"/><polyline points="50.99 14.36 91.22 14.36 91.22 17.8" style="fill:none;stroke:#009191;stroke-linecap:round;stroke-linejoin:round;stroke-width:2.04621067780437px"/><polyline points="13.35 32.66 37.13 32.66 37.13 34.93" style="fill:none;stroke:#009191;stroke-linecap:round;stroke-linejoin:round;stroke-width:2.04621067780437px"/><polyline points="13.35 42.66 37.13 42.66 37.13 44.94" style="fill:none;stroke:#009191;stroke-linecap:round;stroke-linejoin:round;stroke-width:2.04621067780437px"/><polyline points="105.3 32.66 129.07 32.66 129.07 34.93" style="fill:none;stroke:#009191;stroke-linecap:round;stroke-linejoin:round;stroke-width:2.04621067780437px"/><polyline points="105.3 42.66 129.07 42.66 129.07 44.94" style="fill:none;stroke:#009191;stroke-linecap:round;stroke-linejoin:round;stroke-width:2.04621067780437px"/><polyline points="50.99 50.71 91.22 50.71 91.22 54.42" style="fill:none;stroke:#009191;stroke-linecap:round;stroke-linejoin:round;stroke-width:2.04621067780437px"/><polyline points="50.99 38.51 91.22 38.51 91.22 41.95" style="fill:none;stroke:#009191;stroke-linecap:round;stroke-linejoin:round;stroke-width:2.04621067780437px"/><polyline points="50.99 62.91 91.22 62.91 91.22 66.62" style="fill:none;stroke:#009191;stroke-linecap:round;stroke-linejoin:round;stroke-width:2.04621067780437px"/><polyline points="80.71 79.01 91.22 79.01 91.22 75.11 50.99 75.11" style="fill:none;stroke:#009191;stroke-linecap:round;stroke-linejoin:round;stroke-width:2.04621067780437px"/><polyline points="13.35 52.77 37.13 52.77 37.13 55.03" style="fill:none;stroke:#009191;stroke-linecap:round;stroke-linejoin:round;stroke-width:2.04621067780437px"/><polyline points="13.35 62.77 37.13 62.77 37.13 65.05" style="fill:none;stroke:#009191;stroke-linecap:round;stroke-linejoin:round;stroke-width:2.04621067780437px"/><polyline points="105.3 52.77 129.07 52.77 129.07 55.03" style="fill:none;stroke:#009191;stroke-linecap:round;stroke-linejoin:round;stroke-width:2.04621067780437px"/><polyline points="105.3 62.77 129.07 62.77 129.07 65.05" style="fill:none;stroke:#009191;stroke-linecap:round;stroke-linejoin:round;stroke-width:2.04621067780437px"/><polyline points="105.3 72.77 129.07 72.77 129.07 76.76 118.56 76.76" style="fill:none;stroke:#009191;stroke-linecap:round;stroke-linejoin:round;stroke-width:1.83222446337604px"/><polyline points="26.61 76.76 37.13 76.76 37.13 72.77 13.35 72.77" style="fill:none;stroke:#009191;stroke-linecap:round;stroke-linejoin:round;stroke-width:2.04621067780437px"/><line x1="100.8" y1="84.65" x2="100.8" y2="93.25" style="fill:none;stroke:#009191;stroke-linecap:round;stroke-linejoin:round;stroke-width:2.04621067780437px"/><line x1="138.41" y1="88.59" x2="138.41" y2="93.25" style="fill:none;stroke:#009191;stroke-linecap:round;stroke-linejoin:round;stroke-width:2.04621067780437px"/><path d="M18.08,91.14H8.3A7.28,7.28,0,0,1,1,83.86H1A7.28,7.28,0,0,1,8.3,76.58h2.46V76A10.32,10.32,0,0,1,21.09,65.63h.61A10.32,10.32,0,0,1,32,76h4a7.59,7.59,0,0,1,7.59,7.59h0A7.59,7.59,0,0,1,36,91.14h-18Z" style="fill:#7ce8dd"/><path d="M43.62,83.55h0A7.59,7.59,0,0,0,36,76H32A10.32,10.32,0,0,0,21.7,65.63h-.61A10.32,10.32,0,0,0,10.76,76v.62H8.3A7.28,7.28,0,0,0,1,83.86H1A7.28,7.28,0,0,0,8.3,91.14h9.78" style="fill:none;stroke:#009191;stroke-linecap:round;stroke-linejoin:round;stroke-width:2.04621067780437px"/></g></g></svg>