<svg xmlns="http://www.w3.org/2000/svg" viewBox="0 0 59.57 59.14"><g><g><line x1="3.84" y1="7.74" x2="55.58" y2="7.74" style="fill:none;stroke:#009191;stroke-linecap:round;stroke-linejoin:round;stroke-width:1.08929325123859px"/><line x1="3.9" y1="4.38" x2="6.28" y2="4.38" style="fill:none;stroke:#009191;stroke-linecap:round;stroke-linejoin:round;stroke-width:1.08929325123859px"/><line x1="9.19" y1="4.38" x2="11.57" y2="4.38" style="fill:none;stroke:#009191;stroke-linecap:round;stroke-linejoin:round;stroke-width:1.08929325123859px"/><line x1="14.48" y1="4.38" x2="16.85" y2="4.38" style="fill:none;stroke:#009191;stroke-linecap:round;stroke-linejoin:round;stroke-width:1.08929325123859px"/><path d="M.54,29.13V3.86A3.32,3.32,0,0,1,3.86.54H55.72A3.32,3.32,0,0,1,59,3.86V55.28a3.32,3.32,0,0,1-3.31,3.32H45.55" style="fill:none;stroke:#009191;stroke-linecap:round;stroke-linejoin:round;stroke-width:1.08929325123859px"/><rect x="39.54" y="13.72" width="14.41" height="6.97" style="fill:#00e8dd"/><path d="M39.54,28.36V24.5h14.4v7h-9S44.46,28.36,39.54,28.36Z" style="fill:#00e8dd"/><rect x="45.09" y="35.45" width="8.86" height="6.97" style="fill:#00e8dd"/><rect x="4.81" y="33.14" width="8.13" height="25.46" style="fill:none;stroke:#009191;stroke-linecap:round;stroke-linejoin:round;stroke-width:1.08929325123859px"/><line x1="0.61" y1="35.45" x2="4.81" y2="35.45" style="fill:none;stroke:#009191;stroke-linecap:round;stroke-linejoin:round;stroke-width:1.08929325123859px"/><line x1="0.61" y1="55.88" x2="4.81" y2="55.88" style="fill:none;stroke:#009191;stroke-linecap:round;stroke-linejoin:round;stroke-width:1.08929325123859px"/><path d="M13,35.45h0A12.42,12.42,0,0,0,24.27,28.6a14.44,14.44,0,0,0,1.38-6.92,2.3,2.3,0,0,1,3.64-2c3.26,2.48,3.42,7.34.64,13.48" style="fill:none;stroke:#009191;stroke-linecap:round;stroke-linejoin:round;stroke-width:1.08929325123859px"/><path d="M25.86,33.14h13.2a3.13,3.13,0,0,1,3.13,3.12h0a3.13,3.13,0,0,1-3.13,3.13H35.77" style="fill:none;stroke:#009191;stroke-linecap:round;stroke-linejoin:round;stroke-width:1.08929325123859px"/><path d="M35.77,39.39h3.29a3.13,3.13,0,0,1,3.13,3.13h0a3.13,3.13,0,0,1-3.13,3.12H35.77" style="fill:none;stroke:#009191;stroke-linecap:round;stroke-linejoin:round;stroke-width:1.08929325123859px"/><path d="M35.77,45.71h3.29a3.12,3.12,0,0,1,3.13,3.12h0A3.13,3.13,0,0,1,39.06,52H35.77" style="fill:none;stroke:#009191;stroke-linecap:round;stroke-linejoin:round;stroke-width:1.08929325123859px"/><path d="M35.77,52h3.29a3.13,3.13,0,0,1,3.13,3.12h0a3.13,3.13,0,0,1-3.13,3.13H26.27a22.09,22.09,0,0,1-9-2.33H13" style="fill:none;stroke:#009191;stroke-linecap:round;stroke-linejoin:round;stroke-width:1.08929325123859px"/><line x1="7.23" y1="53.4" x2="9.91" y2="53.4" style="fill:none;stroke:#009191;stroke-linecap:round;stroke-linejoin:round;stroke-width:1.08929325123859px"/><line x1="31.4" y1="13.72" x2="5.88" y2="13.72" style="fill:none;stroke:#009191;stroke-linecap:round;stroke-linejoin:round;stroke-width:1.08929325123859px"/><line x1="19.53" y1="20.53" x2="5.88" y2="20.53" style="fill:none;stroke:#009191;stroke-linecap:round;stroke-linejoin:round;stroke-width:1.08929325123859px"/><line x1="19.53" y1="27.33" x2="5.88" y2="27.33" style="fill:none;stroke:#009191;stroke-linecap:round;stroke-linejoin:round;stroke-width:1.08929325123859px"/></g></g></svg>