<svg xmlns="http://www.w3.org/2000/svg" viewBox="0 0 98.92 99.38"><g><g><path d="M30.55,16.43A38.06,38.06,0,0,1,66.87,16" style="fill:none;stroke:#009191;stroke-linecap:round;stroke-linejoin:round;stroke-width:2.04621067780437px"/><path d="M25.39,7.17a48.7,48.7,0,0,1,46.44-.51" style="fill:none;stroke:#009191;stroke-linecap:round;stroke-linejoin:round;stroke-width:2.04621067780437px"/><path d="M62.39,24.52a28.52,28.52,0,0,0-27.17.29" style="fill:none;stroke:#009191;stroke-linecap:round;stroke-linejoin:round;stroke-width:2.04621067780437px"/><path d="M66.67,83a38.09,38.09,0,0,1-36.32.4" style="fill:none;stroke:#009191;stroke-linecap:round;stroke-linejoin:round;stroke-width:2.04621067780437px"/><path d="M71.83,92.21a48.7,48.7,0,0,1-46.44.51" style="fill:none;stroke:#009191;stroke-linecap:round;stroke-linejoin:round;stroke-width:2.04621067780437px"/><path d="M34.84,74.87A28.54,28.54,0,0,0,62,74.57" style="fill:none;stroke:#009191;stroke-linecap:round;stroke-linejoin:round;stroke-width:2.04621067780437px"/><polygon points="97.9 57.51 97.9 64.7 76.51 64.7 76.51 34.69 97.52 34.69 97.52 41.87 84.75 41.87 84.75 46.1 95.66 46.1 95.66 52.78 84.75 52.78 84.75 57.51 97.9 57.51" style="fill:none;stroke:#009191;stroke-linecap:round;stroke-linejoin:round;stroke-width:2.04621067780437px"/><polygon points="9.26 57.51 22.87 57.51 22.87 64.7 1.02 64.7 1.02 34.69 9.26 34.69 9.26 57.51" style="fill:none;stroke:#009191;stroke-linecap:round;stroke-linejoin:round;stroke-width:2.04621067780437px"/><polygon points="62.06 34.69 70.73 34.69 59.7 64.7 52.85 64.7 50.44 58.22 41.7 34.69 50.4 34.69 50.44 34.84 56.28 54.34 62.06 34.69" style="fill:none;stroke:#009191;stroke-linecap:round;stroke-linejoin:round;stroke-width:2.04621067780437px"/><rect x="28.26" y="46.48" width="8.24" height="18.22" style="fill:none;stroke:#009191;stroke-linecap:round;stroke-linejoin:round;stroke-width:2.04621067780437px"/><circle cx="32.43" cy="38.8" r="4.12" style="fill:#7ce8dd"/><circle cx="32.43" cy="38.8" r="4.12" style="fill:none;stroke:#009191;stroke-linecap:round;stroke-linejoin:round;stroke-width:2.04621067780437px"/></g></g></svg>