<svg xmlns="http://www.w3.org/2000/svg" viewBox="0 0 55.52 56.05"><g><g><path d="M38,23.51c4.89-3.72,9.78-4,13,2.44a1,1,0,0,0,1.74,0c2.17-4.42-.56-11-7.71-11a11,11,0,0,0-10.5,6.65L37,21.2l1,2.31" style="fill:#00e8dd"/><path d="M38,23.51c4.89-3.72,9.78-4,13,2.44a1,1,0,0,0,1.74,0c2.17-4.42-.56-11-7.71-11a11,11,0,0,0-10.5,6.65" style="fill:none;stroke:#009191;stroke-linecap:round;stroke-linejoin:round;stroke-width:1.08929325123859px"/><path d="M18.07,10.66a9.1,9.1,0,0,1,18-2.54c0,.22.07.54.09.9a.44.44,0,0,1-.8.29,9.11,9.11,0,0,0-15.6,2.12" style="fill:#00e8dd"/><path d="M18.07,10.66a9.1,9.1,0,0,1,18-2.54c0,.22.07.54.09.9a.44.44,0,0,1-.8.29,9.11,9.11,0,0,0-15.6,2.12" style="fill:none;stroke:#009191;stroke-linecap:round;stroke-linejoin:round;stroke-width:1.08929325123859px"/><path d="M8.66,19.62S7.2,25.05.54,23.3c5.26,7.35,12.34,1.34,12.34,1.34" style="fill:none;stroke:#009191;stroke-linecap:round;stroke-linejoin:round;stroke-width:1.08929325123859px"/><line x1="19.92" y1="24.11" x2="21.92" y2="27.62" style="fill:none;stroke:#009191;stroke-linecap:round;stroke-linejoin:round;stroke-width:1.08929325123859px"/><line x1="17.87" y1="25.02" x2="19.04" y2="28.96" style="fill:none;stroke:#009191;stroke-linecap:round;stroke-linejoin:round;stroke-width:1.08929325123859px"/><path d="M25.4,36.25l0,.21a1.43,1.43,0,0,0,1.24,1.71h0a1.44,1.44,0,0,0,1.6-1.42V36.1" style="fill:none;stroke:#009191;stroke-linecap:round;stroke-linejoin:round;stroke-width:1.08929325123859px"/><path d="M33,34.54l.32.38A1.4,1.4,0,0,0,35.4,35h0A1.4,1.4,0,0,0,35,32.76l0,0" style="fill:none;stroke:#009191;stroke-linecap:round;stroke-linejoin:round;stroke-width:1.08929325123859px"/><polyline points="26.8 38.35 26.8 39.4 17.35 39.75" style="fill:none;stroke:#009191;stroke-linecap:round;stroke-linejoin:round;stroke-width:1.08929325123859px"/><line x1="15.6" y1="38" x2="18.4" y2="41.15" style="fill:none;stroke:#009191;stroke-linecap:round;stroke-linejoin:round;stroke-width:1.08929325123859px"/><polyline points="35.37 35.02 39.23 37.83 40.63 45.88" style="fill:none;stroke:#009191;stroke-linecap:round;stroke-linejoin:round;stroke-width:1.08929325123859px"/><line x1="39.57" y1="45.88" x2="42.73" y2="45.88" style="fill:none;stroke:#009191;stroke-linecap:round;stroke-linejoin:round;stroke-width:1.08929325123859px"/><line x1="20.85" y1="15.95" x2="27.61" y2="15.95" style="fill:none;stroke:#009191;stroke-linecap:round;stroke-linejoin:round;stroke-width:1.08929325123859px"/><line x1="30.3" y1="15.95" x2="31.35" y2="15.95" style="fill:none;stroke:#009191;stroke-linecap:round;stroke-linejoin:round;stroke-width:1.08929325123859px"/><circle cx="12.54" cy="18.03" r="1.3" style="fill:none;stroke:#009191;stroke-linecap:round;stroke-linejoin:round;stroke-width:1.08929325123859px"/><line x1="43.25" y1="36.6" x2="50.71" y2="36.6" style="fill:none;stroke:#009191;stroke-linecap:round;stroke-linejoin:round;stroke-width:1.08929325123859px"/><line x1="53.4" y1="36.6" x2="54.8" y2="36.6" style="fill:none;stroke:#009191;stroke-linecap:round;stroke-linejoin:round;stroke-width:1.08929325123859px"/><line x1="25.21" y1="44.43" x2="28.12" y2="44.43" style="fill:none;stroke:#009191;stroke-linecap:round;stroke-linejoin:round;stroke-width:1.08929325123859px"/><line x1="30.81" y1="44.43" x2="31.98" y2="44.43" style="fill:none;stroke:#009191;stroke-linecap:round;stroke-linejoin:round;stroke-width:1.08929325123859px"/><line x1="54.98" y1="55.51" x2="6.67" y2="55.51" style="fill:none;stroke:#009191;stroke-linecap:round;stroke-linejoin:round;stroke-width:1.08929325123859px"/><circle cx="15.91" cy="17.81" r="7.47" style="fill:none;stroke:#009191;stroke-linecap:round;stroke-linejoin:round;stroke-width:1.08929325123859px"/><path d="M25.4,32.75l10-4.64a4.52,4.52,0,0,0,2.09-6.24l-.15-.29a.88.88,0,0,0-1.14-.39L18.4,29.25s2.1,9.45,12.25,6.3c4.87-1.35,5.56-5,5.62-6.59" style="fill:none;stroke:#009191;stroke-linecap:round;stroke-linejoin:round;stroke-width:1.08929325123859px"/></g></g></svg>