<svg xmlns="http://www.w3.org/2000/svg" viewBox="0 0 711.19 339.29"><g><g><line x1="64.42" y1="338.29" x2="667.46" y2="338.29" style="fill:#20c5ba;stroke:#fff;stroke-linecap:round;stroke-linejoin:round;stroke-width:2px"/><line x1="56.35" y1="338.29" x2="41.07" y2="338.29" style="fill:#20c5ba;stroke:#fff;stroke-linecap:round;stroke-linejoin:round;stroke-width:2px"/><line x1="33.57" y1="338.29" x2="25.94" y2="338.29" style="fill:#20c5ba;stroke:#fff;stroke-linecap:round;stroke-linejoin:round;stroke-width:2px"/><line x1="675.01" y1="338.29" x2="694.1" y2="338.29" style="fill:#20c5ba;stroke:#fff;stroke-linecap:round;stroke-linejoin:round;stroke-width:2px"/><line x1="701.4" y1="338.29" x2="710.19" y2="338.29" style="fill:#20c5ba;stroke:#fff;stroke-linecap:round;stroke-linejoin:round;stroke-width:2px"/><g style="opacity:0.56"><circle cx="381.33" cy="179.31" r="145.52" style="fill:#0dafa8"/></g><path d="M83.55,194.65s-.69,3.57-3.78,3.57c3.18,0,3.78,3.87,3.78,3.87s.41-3.87,3.6-3.87C84.15,198.22,83.55,194.65,83.55,194.65Z" style="fill:none;stroke:#fff;stroke-linecap:round;stroke-linejoin:round;stroke-width:1.83502567339972px"/><path d="M569.16,159.09s-.7,3.58-3.79,3.58c3.19,0,3.79,3.86,3.79,3.86s.4-3.86,3.59-3.86C569.76,162.67,569.16,159.09,569.16,159.09Z" style="fill:none;stroke:#fff;stroke-linecap:round;stroke-linejoin:round;stroke-width:1.83502567339972px"/><circle cx="2.25" cy="255.11" r="1.34" style="fill:none;stroke:#fff;stroke-linecap:round;stroke-linejoin:round;stroke-width:1.83502567339972px"/><circle cx="27.99" cy="102.22" r="2.27" style="fill:none;stroke:#fff;stroke-linecap:round;stroke-linejoin:round;stroke-width:1.83502567339972px"/><circle cx="522.09" cy="72.45" r="2.27" style="fill:none;stroke:#fff;stroke-linecap:round;stroke-linejoin:round;stroke-width:1.83502567339972px"/><circle cx="503.64" cy="219.56" r="2.27" style="fill:none;stroke:#fff;stroke-linecap:round;stroke-linejoin:round;stroke-width:1.83502567339972px"/><path d="M700.48,149.83s-.64,3.61-3.51,3.61c3,0,3.51,3.89,3.51,3.89s.38-3.89,3.34-3.89C701,153.44,700.48,149.83,700.48,149.83Z" style="fill:none;stroke:#fff;stroke-linecap:round;stroke-linejoin:round;stroke-width:1.98859535944514px"/><path d="M672.21,31.67s-.64,3.6-3.51,3.6c3,0,3.51,3.9,3.51,3.9s.38-3.9,3.34-3.9C672.77,35.27,672.21,31.67,672.21,31.67Z" style="fill:none;stroke:#fff;stroke-linecap:round;stroke-linejoin:round;stroke-width:1.83502567339972px"/><ellipse cx="621.02" cy="96.89" rx="1.24" ry="1.35" style="fill:none;stroke:#fff;stroke-linecap:round;stroke-linejoin:round;stroke-width:1.98859535944514px"/><polygon points="118.63 310.45 149.33 311.23 184.99 275.79 216.5 279.81 239.96 266.43 309.07 270.9 362.93 318.38 414.53 320.43 484.86 277.68 551.2 268.2 622.93 298.75 644.68 334.93 103.87 334.93 118.63 310.45" style="fill:#0dafa8"/><polygon points="157.87 276.26 206.83 272.89 263.94 249.58 365.26 305.35 416.86 307.39 487.19 264.64 552.99 239.09 625.26 285.71 638.45 334.32 391.09 333.75 102.21 335.58 157.87 276.26" style="fill:#0dafa8;opacity:0.64"/><polygon points="140 258 204.52 282.13 263.53 261.67 368.04 310.19 421.31 311.88 494.01 274.43 561.99 252 636.52 292.58 650.05 335 394.66 334.95 102.21 335.58 140 258" style="fill:#0dafa8;opacity:0.26"/><polyline points="392.12 28.83 393.99 20.05 377.45 28.83" style="fill:#20c5ba;stroke:#fff;stroke-linecap:round;stroke-linejoin:round;stroke-width:2px"/><line x1="364.66" y1="188.77" x2="368.05" y2="168.77" style="fill:#20c5ba;stroke:#fff;stroke-linecap:round;stroke-linejoin:round;stroke-width:2px"/><line x1="339.53" y1="161.83" x2="335.64" y2="182.63" style="fill:#20c5ba;stroke:#fff;stroke-linecap:round;stroke-linejoin:round;stroke-width:2px"/><line x1="390.39" y1="188.02" x2="386.53" y2="168.87" style="fill:#20c5ba;stroke:#fff;stroke-linecap:round;stroke-linejoin:round;stroke-width:2px"/><line x1="415.06" y1="162.91" x2="419.42" y2="182.03" style="fill:#20c5ba;stroke:#fff;stroke-linecap:round;stroke-linejoin:round;stroke-width:2px"/><polyline points="316.19 275.89 305.81 276.33 305.81 294.04 290.69 303.81 290.69 312.59 359.67 312.59 359.67 304.01 354.69 301.42 354.69 289.46 345.71 283.67" style="fill:#20c5ba;stroke:#fff;stroke-linecap:round;stroke-linejoin:round;stroke-width:2px"/><polyline points="439.27 275.89 448.25 275.89 448.25 295.04 464.04 304.81 464.04 313.59 394.38 313.59 394.38 305.01 399.37 302.42 399.15 290.11 408.87 283.77" style="fill:#20c5ba;stroke:#fff;stroke-linecap:round;stroke-linejoin:round;stroke-width:2px"/><polyline points="363.24 29.13 361.37 20.35 377.9 29.13" style="fill:#20c5ba;stroke:#fff;stroke-linecap:round;stroke-linejoin:round;stroke-width:2px"/><polyline points="366.86 23.04 376.83 7.88 387.4 23.24" style="fill:#20c5ba;stroke:#fff;stroke-linecap:round;stroke-linejoin:round;stroke-width:2px"/><polyline points="323.07 243.37 316.19 275.89 331.15 275.89 345.71 283.67 352.84 248.61" style="fill:#20c5ba;stroke:#fff;stroke-linecap:round;stroke-linejoin:round;stroke-width:2px"/><polyline points="431.54 242.48 438.4 275.99 423.44 275.99 408.87 283.77 401.47 249.06" style="fill:#20c5ba;stroke:#fff;stroke-linecap:round;stroke-linejoin:round;stroke-width:2px"/><polyline points="325.39 199 317.46 237.81 336.46 253.85 358.9 246.57 366.01 207.69" style="fill:#20c5ba;stroke:#fff;stroke-linecap:round;stroke-linejoin:round;stroke-width:2px"/><ellipse cx="341.62" cy="226.92" rx="15.26" ry="8.68" transform="translate(62.46 527.36) rotate(-80.7)" style="fill:#20c5ba;stroke:#fff;stroke-linecap:round;stroke-linejoin:round;stroke-width:2px"/><rect x="323.06" y="185.2" width="48.9" height="20.28" rx="10.14" transform="translate(47.57 -67.26) rotate(11.86)" style="fill:#20c5ba;stroke:#fff;stroke-linecap:round;stroke-linejoin:round;stroke-width:2px"/><polyline points="388.13 207.2 395.66 246.82 419.44 253.94 436.15 237.65 428.13 199.28" style="fill:#20c5ba;stroke:#fff;stroke-linecap:round;stroke-linejoin:round;stroke-width:2px"/><ellipse cx="413.44" cy="227.22" rx="8.68" ry="15.26" transform="translate(-28.52 62.2) rotate(-8.32)" style="fill:#20c5ba;stroke:#fff;stroke-linecap:round;stroke-linejoin:round;stroke-width:2px"/><rect x="381.7" y="185.2" width="48.9" height="20.28" rx="10.14" transform="translate(-31.43 87.44) rotate(-11.83)" style="fill:#20c5ba;stroke:#fff;stroke-linecap:round;stroke-linejoin:round;stroke-width:2px"/><path d="M288.28,141.86l-4,2.54v19.49a7.15,7.15,0,0,0,7.14,7.15h5.73l5.42-5.43v-4.45" style="fill:#20c5ba;stroke:#fff;stroke-linecap:round;stroke-linejoin:round;stroke-width:2px"/><path d="M369.37,65l-7.18-5.38s-6.51-29.18-6.51-30.52h43.77l-6.4,30.52L385.2,65" style="fill:#20c5ba;stroke:#fff;stroke-linecap:round;stroke-linejoin:round;stroke-width:2px"/><polygon points="396.42 44.08 358.87 44.08 357.15 36.52 397.89 36.3 396.42 44.08" style="fill:none;stroke:#f7931e;stroke-linecap:round;stroke-linejoin:round;stroke-width:3.29408295115136px"/><polygon points="355.81 130.56 409.04 131.56 408.59 123.56 397.63 124.23 397.81 112.45 402.59 109.78 409.48 104 413.93 80.56 400.04 72.41 355 72.41 348.37 74.45 343.15 85.67 344.26 104 355.7 112.89 355.81 130.56" style="fill:#20c5ba"/><polyline points="354.49 65.18 334.29 12.22 286.71 3.69 290.3 62.04 304.52 75.21" style="fill:#20c5ba;stroke:#fff;stroke-linecap:round;stroke-linejoin:round;stroke-width:2px"/><polyline points="399.82 65.18 420.02 9.53 467.6 1 464 59.35 449.94 73.11" style="fill:#20c5ba;stroke:#fff;stroke-linecap:round;stroke-linejoin:round;stroke-width:2px"/><polyline points="296.85 16.52 326.19 21.86 331.52 34.3" style="fill:#20c5ba;stroke:#fff;stroke-linecap:round;stroke-linejoin:round;stroke-width:2px"/><polyline points="361.93 95.21 342.01 95.21 342.01 85.01" style="fill:#20c5ba;stroke:#fff;stroke-linecap:round;stroke-linejoin:round;stroke-width:2px"/><polyline points="412.23 85.12 412.23 95.21 393.27 95.21" style="fill:#20c5ba;stroke:#fff;stroke-linecap:round;stroke-linejoin:round;stroke-width:2px"/><polyline points="342.01 75.17 342.01 65.08 412.23 65.08 412.23 75.13" style="fill:#20c5ba;stroke:#fff;stroke-linecap:round;stroke-linejoin:round;stroke-width:2px"/><path d="M351.79,78.17v4a3,3,0,0,1-3,3H338.67a3,3,0,0,1-1.16-.23,3,3,0,0,1-1.8-2.73v-4a3,3,0,0,1,1.75-2.7,2.89,2.89,0,0,1,1.21-.26h10.16A3,3,0,0,1,351.79,78.17Z" style="fill:#20c5ba;stroke:#fff;stroke-linecap:round;stroke-linejoin:round;stroke-width:2px"/><path d="M419.31,78.17v4a3,3,0,0,1-1.87,2.75,2.86,2.86,0,0,1-1.09.21H406.18a3,3,0,0,1-3-3v-4a3,3,0,0,1,3-3h10.17a3,3,0,0,1,3,3Z" style="fill:#20c5ba;stroke:#fff;stroke-linecap:round;stroke-linejoin:round;stroke-width:2px"/><polyline points="387.29 142.63 408.55 142.63 408.55 123.07 398.57 123.07 398.57 113.31 410.34 104.61 410.34 95.56" style="fill:none;stroke:#fff;stroke-linecap:round;stroke-linejoin:round;stroke-width:2px"/><polyline points="344.54 95.56 344.54 104.61 356.15 113.31 356.15 123.07 346.71 123.07 346.71 142.63 368.66 142.63" style="fill:#20c5ba;stroke:#fff;stroke-linecap:round;stroke-linejoin:round;stroke-width:2px"/><polyline points="346.56 127.87 335.52 140.95 335.52 157.1 345.66 168.57 409.62 168.57 419.42 157.1 419.42 140.95 408.5 127.12" style="fill:#20c5ba;stroke:#fff;stroke-linecap:round;stroke-linejoin:round;stroke-width:2px"/><path d="M449.9,61V92.36l-21.56,7.52a8.25,8.25,0,0,1-11-7.86c0-2.22,0-4.63.06-7.15a3,3,0,0,0,1.87-2.75v-4a3,3,0,0,0-1.81-2.73c.06-12.39.05-24.17-.24-24.17h22.87Z" style="fill:#20c5ba;stroke:#fff;stroke-linecap:round;stroke-linejoin:round;stroke-width:2px"/><path d="M337.51,84.85c0,2.52.05,5,.07,7.17a8.26,8.26,0,0,1-11,7.86l-21.56-7.52V61l9.78-9.77h22.86c-.28,0-.29,11.8-.23,24.2a3,3,0,0,0-1.75,2.7v4A3,3,0,0,0,337.51,84.85Z" style="fill:#20c5ba;stroke:#fff;stroke-linecap:round;stroke-linejoin:round;stroke-width:2px"/><line x1="312.9" y1="95.41" x2="310.8" y2="100.79" style="fill:#20c5ba;stroke:#fff;stroke-linecap:round;stroke-linejoin:round;stroke-width:2px"/><line x1="323.07" y1="99.15" x2="320.97" y2="104.98" style="fill:#20c5ba;stroke:#fff;stroke-linecap:round;stroke-linejoin:round;stroke-width:2px"/><path d="M467.67,141.56l4,2.55v19.48a7.15,7.15,0,0,1-7.15,7.15h-5.72l-5.43-5.43v-4.45" style="fill:#20c5ba;stroke:#fff;stroke-linecap:round;stroke-linejoin:round;stroke-width:2px"/><line x1="443.06" y1="95.11" x2="445.15" y2="100.49" style="fill:#20c5ba;stroke:#fff;stroke-linecap:round;stroke-linejoin:round;stroke-width:2px"/><line x1="432.89" y1="98.85" x2="434.98" y2="104.68" style="fill:#20c5ba;stroke:#fff;stroke-linecap:round;stroke-linejoin:round;stroke-width:2px"/><rect x="369" y="131.01" width="18.1" height="27.08" rx="9.05" style="fill:#20c5ba;stroke:#fff;stroke-linecap:round;stroke-linejoin:round;stroke-width:2px"/><rect x="361.67" y="86.58" width="31.12" height="20.95" style="fill:#20c5ba;stroke:#fff;stroke-linecap:round;stroke-linejoin:round;stroke-width:2px"/><polygon points="452.11 97.35 426.9 108.42 449.04 160.49 458.62 160.49 469.24 136.63 452.11 97.35" style="fill:#20c5ba;stroke:#fff;stroke-linecap:round;stroke-linejoin:round;stroke-width:2px"/><polygon points="303.84 97.65 329.05 108.72 306.91 160.79 297.33 160.79 286.71 136.92 303.84 97.65" style="fill:#20c5ba;stroke:#fff;stroke-linecap:round;stroke-linejoin:round;stroke-width:2px"/><line x1="275.54" y1="304.41" x2="277.13" y2="322.92" style="fill:none;stroke:#fff;stroke-linecap:round;stroke-linejoin:round;stroke-width:2px"/><line x1="281.91" y1="309.75" x2="283.5" y2="328.26" style="fill:none;stroke:#fff;stroke-linecap:round;stroke-linejoin:round;stroke-width:2px"/><polyline points="319.7 279.56 341.81 282.89 331.04 277 317.7 277.22" style="fill:#20c5ba"/><polyline points="421.48 287.33 441.04 277.11 423.7 277.33 410.26 284.22" style="fill:#20c5ba"/><line x1="481.05" y1="304.41" x2="479.46" y2="322.92" style="fill:none;stroke:#fff;stroke-linecap:round;stroke-linejoin:round;stroke-width:2px"/><line x1="474.68" y1="309.75" x2="473.09" y2="328.26" style="fill:none;stroke:#fff;stroke-linecap:round;stroke-linejoin:round;stroke-width:2px"/><circle cx="147.59" cy="58.27" r="2.27" style="fill:none;stroke:#fff;stroke-linecap:round;stroke-linejoin:round;stroke-width:1.83502567339972px"/><path d="M235.19,102.89s-.71,3.93-3.83,3.93c3.22,0,3.83,4.25,3.83,4.25s.41-4.25,3.63-4.25C235.79,106.82,235.19,102.89,235.19,102.89Z" style="fill:none;stroke:#fff;stroke-linecap:round;stroke-linejoin:round;stroke-width:1.83502567339972px"/><ellipse cx="181.37" cy="208.53" rx="3.6" ry="3.91" style="fill:none;stroke:#fff;stroke-linecap:round;stroke-linejoin:round;stroke-width:1.98859535944514px"/></g></g></svg>