<svg xmlns="http://www.w3.org/2000/svg" viewBox="0 0 108.86 95.09"><g><g><path d="M108,18.84a7.58,7.58,0,0,1-7.59,7.59H84.13c-1.77-1-4.28-1.08-10.11-2.13-1.16-4.25-4.69-8.1-6.75-10.06a2.25,2.25,0,0,1,.21-.24c.12-.12.23-.23.35-.33a.1.1,0,0,0,0,0c.11-.09.23-.19.36-.28a1.11,1.11,0,0,1,.16-.12c.12-.1.26-.18.39-.27l.15-.08a2.22,2.22,0,0,1,.43-.23.53.53,0,0,1,.17-.08,2.43,2.43,0,0,1,.4-.18,2.74,2.74,0,0,1,.48-.17l.06,0c.21-.07.44-.13.66-.18h0a5.68,5.68,0,0,1,.72-.11,6,6,0,0,1,.74,0h2.45v-.62A10.33,10.33,0,0,1,85.42.92H86A10.33,10.33,0,0,1,96.36,11.25h4A7.6,7.6,0,0,1,108,18.84Z" style="fill:#7ce8dd"/><path d="M108,18.84h0a7.59,7.59,0,0,0-7.59-7.59h-4A10.33,10.33,0,0,0,86,.92h-.6A10.33,10.33,0,0,0,75.08,11.25v.62H72.63a7.24,7.24,0,0,0-4.79,1.8" style="fill:none;stroke:#009191;stroke-linecap:round;stroke-linejoin:round;stroke-width:1.83222446337604px"/><path d="M35.45,63.18H17.15a16.13,16.13,0,1,1,0-32.25,14.07,14.07,0,0,1,2.26.17A28.41,28.41,0,0,1,74,24.3h.57a19.44,19.44,0,0,1,0,38.88h-9" style="fill:none;stroke:#009191;stroke-linecap:round;stroke-linejoin:round;stroke-width:2.04621067780437px"/><polyline points="64.54 51.97 64.54 80.58 74.04 80.58" style="fill:none;stroke:#009191;stroke-linecap:round;stroke-linejoin:round;stroke-width:2.04621067780437px"/><line x1="50.29" y1="51.97" x2="50.29" y2="86.24" style="fill:none;stroke:#009191;stroke-linecap:round;stroke-linejoin:round;stroke-width:2.04621067780437px"/><polyline points="36.04 51.97 36.04 75.89 26.44 75.89" style="fill:none;stroke:#009191;stroke-linecap:round;stroke-linejoin:round;stroke-width:2.04621067780437px"/><circle cx="78.79" cy="80.58" r="5.18" style="fill:#7ce8dd"/><circle cx="78.79" cy="80.58" r="5.18" style="fill:none;stroke:#009191;stroke-linecap:round;stroke-linejoin:round;stroke-width:2.04621067780437px"/><circle cx="21.26" cy="75.89" r="5.18" style="fill:#7ce8dd"/><circle cx="21.26" cy="75.89" r="5.18" style="fill:none;stroke:#009191;stroke-linecap:round;stroke-linejoin:round;stroke-width:2.04621067780437px"/><circle cx="50.29" cy="88.89" r="5.18" style="fill:#7ce8dd"/><circle cx="50.29" cy="88.89" r="5.18" style="fill:none;stroke:#009191;stroke-linecap:round;stroke-linejoin:round;stroke-width:2.04621067780437px"/><line x1="64.54" y1="46.14" x2="64.54" y2="42.65" style="fill:none;stroke:#009191;stroke-linecap:round;stroke-linejoin:round;stroke-width:2.04621067780437px"/><line x1="50.29" y1="46.14" x2="50.29" y2="42.65" style="fill:none;stroke:#009191;stroke-linecap:round;stroke-linejoin:round;stroke-width:2.04621067780437px"/><line x1="36.04" y1="46.14" x2="36.04" y2="42.65" style="fill:none;stroke:#009191;stroke-linecap:round;stroke-linejoin:round;stroke-width:2.04621067780437px"/></g></g></svg>