<svg xmlns="http://www.w3.org/2000/svg" viewBox="0 0 1145.49 112.3"><g><g><path d="M32.31,1.24q24.07,0,37,8.47t12.9,27.72q0,19.43-13,28T31.84,74.09H24.23v36H0V4A137.27,137.27,0,0,1,16.77,1.86C22.68,1.45,27.85,1.24,32.31,1.24ZM33.86,21.9c-1.76,0-3.49.05-5.2.16s-3.19.2-4.43.31V53.43h7.61q12.58,0,19-3.42t6.37-12.73a15.4,15.4,0,0,0-1.63-7.46,12.54,12.54,0,0,0-4.66-4.74,21.3,21.3,0,0,0-7.38-2.48A60.46,60.46,0,0,0,33.86,21.9Z" style="fill:#082c30"/><path d="M161.68,110.12q-1.8-5.61-3.87-11.52c-1.37-3.94-2.75-7.87-4.11-11.77h-42q-2,5.88-4.09,11.8t-3.81,11.49H78.59Q84.67,92.74,90.12,78t10.67-27.8Q106,37.12,111.07,25.39t10.52-22.9h23q5.31,11.18,10.46,22.9t10.37,24.78q5.24,13,10.69,27.8t11.55,32.15ZM132.57,26.87q-.81,2.34-2.38,6.38t-3.55,9.33q-2,5.28-4.46,11.65t-5,13.33H148q-2.47-7-4.79-13.37t-4.4-11.68q-2.08-5.28-3.65-9.32T132.57,26.87Z" style="fill:#082c30"/><path d="M225.34,46.63q6.54-11,12.44-22T248.67,2.49h26.72q-8.86,17.38-18.33,33.7T237,69v41.16H212.79V69.27q-10.56-16.45-20.11-32.93T174.27,2.49h28.11q5,11.15,10.71,22.15T225.34,46.63Z" style="fill:#082c30"/><path d="M398.08,110.12q-1.8-5.61-3.87-11.52t-4.12-11.77h-42q-2,5.88-4.09,11.8t-3.82,11.49H315Q321.07,92.74,326.52,78t10.67-27.8q5.22-13.05,10.28-24.78T358,2.49h23q5.31,11.18,10.45,22.9t10.38,24.78q5.23,13,10.69,27.8T424,110.12ZM369,26.87q-.83,2.34-2.38,6.38T363,42.58q-2,5.28-4.46,11.65t-5,13.33h30.78q-2.48-7-4.79-13.37t-4.4-11.68q-2.09-5.28-3.66-9.32C370.46,30.51,369.61,28.4,369,26.87Z" style="fill:#082c30"/><path d="M470.16,91.64a35,35,0,0,0,8.46-.85A15.7,15.7,0,0,0,484,88.46a7.89,7.89,0,0,0,2.8-3.5,12.61,12.61,0,0,0,.77-4.5q0-5.28-5-8.78T465.5,64.15q-5.28-1.86-10.57-4.27a39.26,39.26,0,0,1-9.47-6.06A28.83,28.83,0,0,1,438.63,45,27.61,27.61,0,0,1,436,32.31a31.43,31.43,0,0,1,2.79-13.44A28.82,28.82,0,0,1,446.7,8.7a36.18,36.18,0,0,1,12.43-6.45A55.76,55.76,0,0,1,475.59,0a67.19,67.19,0,0,1,18.8,2.33,66.31,66.31,0,0,1,13,5.13l-7,19.1a67.53,67.53,0,0,0-10-4.12,43.47,43.47,0,0,0-13.28-1.78q-8.7,0-12.51,2.41a8.1,8.1,0,0,0-3.8,7.37,8.51,8.51,0,0,0,1.39,5,13.56,13.56,0,0,0,4,3.65A33.46,33.46,0,0,0,472.1,42c2.22.89,4.68,1.79,7.38,2.72q8.38,3.1,14.6,6.14a39,39,0,0,1,10.32,7.06,25.7,25.7,0,0,1,6.14,9.48,38.25,38.25,0,0,1,2,13.2q0,15.08-10.56,23.38t-31.84,8.31a88.14,88.14,0,0,1-12.9-.86,84.93,84.93,0,0,1-10.17-2.09,58.79,58.79,0,0,1-7.61-2.64c-2.12-.94-3.91-1.81-5.36-2.64L441,84.81a60.61,60.61,0,0,0,11.88,4.73A61.52,61.52,0,0,0,470.16,91.64Z" style="fill:#082c30"/><path d="M607.89,46.63q6.54-11,12.44-22T631.22,2.49h26.72q-8.87,17.38-18.33,33.7T619.57,69v41.16H595.34V69.27q-10.56-16.45-20.11-32.93T556.82,2.49h28.12q4.95,11.15,10.7,22.15T607.89,46.63Z" style="fill:#082c30"/><path d="M766.66,56.23a66.3,66.3,0,0,1-4.11,24.3,50,50,0,0,1-11.27,17.56,46.35,46.35,0,0,1-17,10.64,61.87,61.87,0,0,1-21.2,3.57,60.28,60.28,0,0,1-20.82-3.57,47.94,47.94,0,0,1-17.08-10.64,49.79,49.79,0,0,1-11.5-17.56,65.24,65.24,0,0,1-4.19-24.3q0-13.83,4.35-24.31a51.88,51.88,0,0,1,11.72-17.63A48.45,48.45,0,0,1,692.65,3.57,58.7,58.7,0,0,1,713.08,0a60.27,60.27,0,0,1,20.81,3.57A47.45,47.45,0,0,1,751,14.29a50.55,50.55,0,0,1,11.5,17.63A65.25,65.25,0,0,1,766.66,56.23Zm-82.16,0a48.76,48.76,0,0,0,1.94,14.29,32.54,32.54,0,0,0,5.59,11A24.68,24.68,0,0,0,701,88.53a30.52,30.52,0,0,0,24.15,0,24.45,24.45,0,0,0,9-7.06,32.72,32.72,0,0,0,5.59-11,48.76,48.76,0,0,0,1.94-14.29,49.56,49.56,0,0,0-1.94-14.37,32.57,32.57,0,0,0-5.59-11,24.58,24.58,0,0,0-9-7.07,28.35,28.35,0,0,0-12-2.48A27.4,27.4,0,0,0,701,23.84,25.47,25.47,0,0,0,692,31a32.34,32.34,0,0,0-5.59,11A49,49,0,0,0,684.5,56.23Z" style="fill:#082c30"/><path d="M828.94,112.3a54.27,54.27,0,0,1-19.57-3.19,36.45,36.45,0,0,1-13.59-8.85,35.4,35.4,0,0,1-7.92-13.51,55.48,55.48,0,0,1-2.56-17.32V2.49h24.23V67.41A36.58,36.58,0,0,0,811,78.51,20.47,20.47,0,0,0,815,86a14.39,14.39,0,0,0,6.22,4.12,24.57,24.57,0,0,0,8,1.24q8.87,0,14.37-5.44t5.52-18.48V2.49h24.23V69.43a54.79,54.79,0,0,1-2.64,17.4,35.79,35.79,0,0,1-8.08,13.59,36.23,36.23,0,0,1-13.82,8.77A57.34,57.34,0,0,1,828.94,112.3Z" style="fill:#082c30"/><path d="M986.44,21.12q-16.94,0-24.47,9.4t-7.53,25.71a51.67,51.67,0,0,0,1.86,14.36,31.69,31.69,0,0,0,5.6,11.11,25.14,25.14,0,0,0,9.31,7.22,31,31,0,0,0,13,2.56c2.69,0,5,0,6.91-.15a32.39,32.39,0,0,0,5.05-.62V53.28h24.23v53.27a90.68,90.68,0,0,1-14,3.65,123.1,123.1,0,0,1-23.76,1.94,61.66,61.66,0,0,1-22-3.73,45.75,45.75,0,0,1-16.85-10.87A48.53,48.53,0,0,1,933.08,80a68.87,68.87,0,0,1-3.8-23.76,63.74,63.74,0,0,1,4.19-23.92A51.49,51.49,0,0,1,945,14.68,48.21,48.21,0,0,1,962.13,3.73a58.89,58.89,0,0,1,21-3.73,85.59,85.59,0,0,1,24.31,3.34,49,49,0,0,1,7.3,2.72q2.88,1.4,4.12,2.17l-7,19.42a63,63,0,0,0-11.42-4.58A48.3,48.3,0,0,0,986.44,21.12Z" style="fill:#082c30"/><path d="M1145.49,56.23a66.3,66.3,0,0,1-4.12,24.3,50.13,50.13,0,0,1-11.26,17.56,46.31,46.31,0,0,1-17,10.64,61.83,61.83,0,0,1-21.2,3.57,60.23,60.23,0,0,1-20.81-3.57A48,48,0,0,1,1054,98.09a49.64,49.64,0,0,1-11.49-17.56,65,65,0,0,1-4.2-24.3q0-13.83,4.35-24.31a51.75,51.75,0,0,1,11.73-17.63,48.4,48.4,0,0,1,17.08-10.72A58.79,58.79,0,0,1,1091.9,0a60.23,60.23,0,0,1,20.81,3.57,47.49,47.49,0,0,1,17.09,10.72,50.53,50.53,0,0,1,11.49,17.63Q1145.49,42.4,1145.49,56.23Zm-82.17,0a49.1,49.1,0,0,0,1.94,14.29,32.91,32.91,0,0,0,5.59,11,24.71,24.71,0,0,0,8.94,7.06,30.52,30.52,0,0,0,24.15,0,24.62,24.62,0,0,0,9-7.06,32.91,32.91,0,0,0,5.59-11,49.1,49.1,0,0,0,1.94-14.29,49.9,49.9,0,0,0-1.94-14.37,32.75,32.75,0,0,0-5.59-11,24.75,24.75,0,0,0-9-7.07,28.39,28.39,0,0,0-12-2.48,27.33,27.33,0,0,0-12.11,2.56,25.5,25.5,0,0,0-8.94,7.15,32.7,32.7,0,0,0-5.59,11A49.34,49.34,0,0,0,1063.32,56.23Z" style="fill:#082c30"/></g></g></svg>