<svg width="322" height="207" viewBox="0 0 322 207" fill="none" xmlns="http://www.w3.org/2000/svg">
<g clip-path="url(#clip0)">
<path d="M56.2168 100.85V120.45C56.2168 150.65 85.7168 175.45 121.817 175.45H176.517C212.617 175.45 242.117 150.75 242.117 120.45V100.85" stroke="#7CE8DD" stroke-miterlimit="10"/>
<path d="M91.3168 64.85C87.8168 55.25 78.7168 48.25 67.9168 48.05C63.4168 41.25 55.7168 36.75 46.8168 36.75C33.9168 36.75 23.3168 46.35 21.7168 58.75C9.8168 60.75 0.716797 71.15 0.716797 83.65C0.716797 93.55 6.4168 102.05 14.6168 106.25C17.8168 107.85 21.4168 108.85 25.2168 108.95H26.0168C26.2168 108.95 26.3168 108.95 26.5168 108.95H51.3168V112.35H61.1168V108.95H89.0168C89.2168 108.95 89.4168 108.95 89.6168 108.95C92.0168 108.95 94.2168 108.55 96.4168 107.85C105.317 104.95 111.817 96.65 111.817 86.75C111.717 75.25 102.717 65.75 91.3168 64.85Z" fill="#7CE8DD"/>
<path d="M193.117 40.65C198.017 26.95 210.917 17.15 226.217 16.85C232.617 7.15 243.617 0.75 256.117 0.75C274.417 0.75 289.417 14.35 291.717 32.05C308.717 34.95 321.617 49.65 321.617 67.45C321.617 81.45 313.617 93.65 301.817 99.55C297.317 101.85 292.217 103.15 286.817 103.35H285.717C285.517 103.35 285.317 103.35 285.017 103.35H252.917V110.05H232.817V103.35H196.317C196.017 103.35 195.817 103.35 195.517 103.35C192.217 103.35 188.917 102.85 185.917 101.85C173.317 97.75 164.117 85.95 164.117 71.95C164.117 55.35 176.917 41.85 193.117 40.65Z" fill="#7CE8DD"/>
<path d="M103.717 133.95H193.917C196.217 133.95 198.217 132.05 198.217 129.65V63.75C198.217 61.45 196.317 59.45 193.917 59.45H103.717C101.417 59.45 99.4167 61.35 99.4167 63.75V129.75C99.4167 132.05 101.317 133.95 103.717 133.95Z" fill="#7CE8DD" stroke="#009191" stroke-width="1.4478" stroke-linecap="round" stroke-linejoin="round"/>
<path d="M171.717 59.45V44.05C171.717 31.35 161.417 21.15 148.817 21.15C136.117 21.15 125.917 31.45 125.917 44.05V59.45H116.117V43.45C116.117 25.35 130.817 10.65 148.917 10.65C167.017 10.65 181.717 25.35 181.717 43.45V59.45H171.717Z" fill="white" stroke="#009191" stroke-width="1.4478" stroke-linecap="round" stroke-linejoin="round"/>
<path d="M158.317 90.55C158.317 85.25 154.017 81.05 148.817 81.05C143.517 81.05 139.317 85.35 139.317 90.55C139.317 94.75 142.117 98.35 145.917 99.65H145.717V112.35H152.117V99.65H151.717C155.517 98.35 158.317 94.85 158.317 90.55Z" fill="#009191"/>
<path d="M113.317 133.95V150.65" stroke="#009191" stroke-width="1.4478" stroke-linecap="round" stroke-linejoin="round"/>
<path d="M113.317 165.45V182.05" stroke="#009191" stroke-width="1.4478" stroke-linecap="round" stroke-linejoin="round"/>
<path d="M127.817 148.25V187.85L113.317 203.75" stroke="#009191" stroke-width="1.4478" stroke-linecap="round" stroke-linejoin="round"/>
<path d="M142.317 133.95V149.65" stroke="#009191" stroke-width="1.4478" stroke-linecap="round" stroke-linejoin="round"/>
<path d="M142.317 163.85V184.65" stroke="#009191" stroke-width="1.4478" stroke-linecap="round" stroke-linejoin="round"/>
<path d="M156.917 133.95V205.35" stroke="#009191" stroke-width="1.4478" stroke-linecap="round" stroke-linejoin="round"/>
<path d="M171.417 133.95V205.35" stroke="#009191" stroke-width="1.4478" stroke-linecap="round" stroke-linejoin="round"/>
<path d="M113.117 156.45C114.718 156.45 116.017 155.152 116.017 153.55C116.017 151.948 114.718 150.65 113.117 150.65C111.515 150.65 110.217 151.948 110.217 153.55C110.217 155.152 111.515 156.45 113.117 156.45Z" stroke="#009191" stroke-width="1.4478" stroke-linecap="round" stroke-linejoin="round"/>
<path d="M127.817 147.55C129.418 147.55 130.717 146.252 130.717 144.65C130.717 143.048 129.418 141.75 127.817 141.75C126.215 141.75 124.917 143.048 124.917 144.65C124.917 146.252 126.215 147.55 127.817 147.55Z" stroke="#009191" stroke-width="1.4478" stroke-linecap="round" stroke-linejoin="round"/>
<path d="M156.917 186.35C158.518 186.35 159.817 185.052 159.817 183.45C159.817 181.848 158.518 180.55 156.917 180.55C155.315 180.55 154.017 181.848 154.017 183.45C154.017 185.052 155.315 186.35 156.917 186.35Z" fill="white" stroke="#009191" stroke-width="1.4478" stroke-linecap="round" stroke-linejoin="round"/>
<path d="M171.417 186.35C173.018 186.35 174.317 185.052 174.317 183.45C174.317 181.848 173.018 180.55 171.417 180.55C169.815 180.55 168.517 181.848 168.517 183.45C168.517 185.052 169.815 186.35 171.417 186.35Z" fill="white" stroke="#009191" stroke-width="1.4478" stroke-linecap="round" stroke-linejoin="round"/>
<path d="M113.117 187.85C114.718 187.85 116.017 186.552 116.017 184.95C116.017 183.348 114.718 182.05 113.117 182.05C111.515 182.05 110.217 183.348 110.217 184.95C110.217 186.552 111.515 187.85 113.117 187.85Z" stroke="#009191" stroke-width="1.4478" stroke-linecap="round" stroke-linejoin="round"/>
<path d="M113.117 166.45C115.216 166.45 116.917 164.749 116.917 162.65C116.917 160.551 115.216 158.85 113.117 158.85C111.018 158.85 109.317 160.551 109.317 162.65C109.317 164.749 111.018 166.45 113.117 166.45Z" fill="#009191"/>
<path d="M142.317 199.65V205.35" stroke="#009191" stroke-width="1.4478" stroke-linecap="round" stroke-linejoin="round"/>
<path d="M142.317 190.35C143.918 190.35 145.217 189.052 145.217 187.45C145.217 185.848 143.918 184.55 142.317 184.55C140.715 184.55 139.417 185.848 139.417 187.45C139.417 189.052 140.715 190.35 142.317 190.35Z" stroke="#009191" stroke-width="1.4478" stroke-linecap="round" stroke-linejoin="round"/>
<path d="M142.317 200.45C144.416 200.45 146.117 198.749 146.117 196.65C146.117 194.551 144.416 192.85 142.317 192.85C140.218 192.85 138.517 194.551 138.517 196.65C138.517 198.749 140.218 200.45 142.317 200.45Z" fill="#009191"/>
<path d="M127.817 141.75V133.95" stroke="#009191" stroke-width="1.4478" stroke-linecap="round" stroke-linejoin="round"/>
<path d="M184.417 148.25V187.85L198.917 203.75" stroke="#009191" stroke-width="1.4478" stroke-linecap="round" stroke-linejoin="round"/>
<path d="M184.417 147.55C186.018 147.55 187.317 146.252 187.317 144.65C187.317 143.048 186.018 141.75 184.417 141.75C182.815 141.75 181.517 143.048 181.517 144.65C181.517 146.252 182.815 147.55 184.417 147.55Z" stroke="#009191" stroke-width="1.4478" stroke-linecap="round" stroke-linejoin="round"/>
<path d="M184.417 141.75V133.95" stroke="#009191" stroke-width="1.4478" stroke-linecap="round" stroke-linejoin="round"/>
<path d="M141.517 163.85H143.217C144.317 163.85 145.217 162.95 145.217 161.85V151.05C145.217 149.95 144.317 149.05 143.217 149.05H141.517C140.417 149.05 139.517 149.95 139.517 151.05V161.85C139.517 162.95 140.417 163.85 141.517 163.85Z" fill="white" stroke="#009191" stroke-width="1.4478" stroke-linecap="round" stroke-linejoin="round"/>
<path d="M155.717 169.15H172.617C173.717 169.15 174.617 168.25 174.617 167.15V156.35C174.617 155.25 173.717 154.35 172.617 154.35H155.717C154.617 154.35 153.717 155.25 153.717 156.35V167.15C153.717 168.25 154.617 169.15 155.717 169.15Z" fill="white" stroke="#009191" stroke-width="1.4478" stroke-linecap="round" stroke-linejoin="round"/>
<path d="M26.0167 148.15C26.6167 143.45 30.6167 139.75 35.5167 139.75C38.9167 139.75 41.8167 141.45 43.5167 144.05C47.6167 144.15 51.1167 146.75 52.4167 150.45C56.7167 150.75 60.2167 154.45 60.2167 158.85C60.2167 162.55 57.7167 165.75 54.4167 166.85C53.6167 167.15 52.7167 167.25 51.8167 167.25C51.7167 167.25 51.7167 167.25 51.6167 167.25H44.8167H41.8167H36.4167H34.2167H27.7167C27.6167 167.25 27.6167 167.25 27.5167 167.25H27.2167C25.8167 167.25 24.4167 166.85 23.2167 166.25C20.1167 164.65 17.9167 161.45 17.9167 157.65C18.0167 152.85 21.4167 148.95 26.0167 148.15Z" fill="#E7ECF4"/>
<path d="M281.817 129.05C281.317 125.45 278.217 122.65 274.517 122.65C271.917 122.65 269.717 123.95 268.317 125.95C265.217 126.05 262.517 128.05 261.517 130.85C258.217 131.15 255.517 133.85 255.517 137.25C255.517 140.15 257.417 142.55 260.017 143.35C260.617 143.55 261.317 143.65 262.017 143.65C262.117 143.65 262.117 143.65 262.217 143.65H267.417H269.717H273.817H275.517H280.517H280.617H280.817C281.917 143.65 283.017 143.35 283.917 142.85C286.317 141.65 288.017 139.15 288.017 136.25C287.917 132.65 285.317 129.55 281.817 129.05Z" fill="#E7ECF4"/>
</g>
<defs>
<clipPath id="clip0">
<rect width="320.9" height="205.3" fill="white" transform="translate(0.716797 0.75)"/>
</clipPath>
</defs>
</svg>
