<svg xmlns="http://www.w3.org/2000/svg" viewBox="0 0 381.1 197.55"><g><g><path d="M186.4,148A92.08,92.08,0,1,1,197,105v.51a92,92,0,1,0,14.35-49.36" style="fill:#082c30"/><path d="M174.4,136A92.08,92.08,0,1,1,185,93v.51a92,92,0,1,0,14.35-49.36" style="fill:#0b3a42;stroke:#7ce8dd;stroke-linecap:round;stroke-linejoin:round;stroke-width:1.92786718332016px"/><circle cx="92.44" cy="93.25" r="75.23" style="fill:#0a434c"/><circle cx="276.89" cy="93.25" r="75.23" style="fill:#0a434c"/><line x1="92.44" y1="2.5" x2="92.44" y2="15.18" style="fill:#0b3a42;stroke:#7ce8dd;stroke-linecap:round;stroke-linejoin:round;stroke-width:1.92786718332016px"/><line x1="92.44" y1="171.33" x2="92.44" y2="184.01" style="fill:#0b3a42;stroke:#7ce8dd;stroke-linecap:round;stroke-linejoin:round;stroke-width:1.92786718332016px"/><line x1="137.02" y1="14.2" x2="130.79" y2="25.25" style="fill:#0b3a42;stroke:#7ce8dd;stroke-linecap:round;stroke-linejoin:round;stroke-width:1.92786718332016px"/><line x1="54.09" y1="161.26" x2="47.86" y2="172.31" style="fill:#0b3a42;stroke:#7ce8dd;stroke-linecap:round;stroke-linejoin:round;stroke-width:1.92786718332016px"/><line x1="47.04" y1="14.67" x2="53.39" y2="25.65" style="fill:#0b3a42;stroke:#7ce8dd;stroke-linecap:round;stroke-linejoin:round;stroke-width:1.92786718332016px"/><line x1="131.5" y1="160.86" x2="137.84" y2="171.84" style="fill:#0b3a42;stroke:#7ce8dd;stroke-linecap:round;stroke-linejoin:round;stroke-width:1.92786718332016px"/><line x1="14.32" y1="47.07" x2="25.23" y2="53.52" style="fill:#0b3a42;stroke:#7ce8dd;stroke-linecap:round;stroke-linejoin:round;stroke-width:1.92786718332016px"/><line x1="159.65" y1="132.99" x2="170.57" y2="139.44" style="fill:#0b3a42;stroke:#7ce8dd;stroke-linecap:round;stroke-linejoin:round;stroke-width:1.92786718332016px"/><line x1="1.7" y1="91.47" x2="14.38" y2="91.72" style="fill:#0b3a42;stroke:#7ce8dd;stroke-linecap:round;stroke-linejoin:round;stroke-width:1.92786718332016px"/><line x1="170.5" y1="94.79" x2="183.18" y2="95.04" style="fill:#0b3a42;stroke:#7ce8dd;stroke-linecap:round;stroke-linejoin:round;stroke-width:1.92786718332016px"/><line x1="171.39" y1="48.5" x2="160.36" y2="54.75" style="fill:#0b3a42;stroke:#7ce8dd;stroke-linecap:round;stroke-linejoin:round;stroke-width:1.92786718332016px"/><line x1="24.52" y1="131.76" x2="13.49" y2="138.01" style="fill:#0b3a42;stroke:#7ce8dd;stroke-linecap:round;stroke-linejoin:round;stroke-width:1.92786718332016px"/><circle cx="92.92" cy="93.24" r="11.05" style="fill:#0b3a42;stroke:#7ce8dd;stroke-linecap:round;stroke-linejoin:round;stroke-width:1.92786718332016px"/><line x1="78.16" y1="39.77" x2="89.94" y2="82.61" style="fill:#0b3a42;stroke:#7ce8dd;stroke-linecap:round;stroke-linejoin:round;stroke-width:1.92786718332016px"/><line x1="83.57" y1="99.12" x2="60.35" y2="112.73" style="fill:#0b3a42;stroke:#7ce8dd;stroke-linecap:round;stroke-linejoin:round;stroke-width:1.92786718332016px"/><path d="M310.28,67.88s-6.79-21.52-33.39-22.35c-7.9-.24-16,1.76-21.67,7.56-12.48,12.78-7,34.55,9.79,40.4a42.69,42.69,0,0,0,14,2.11c8.69,0,18,2.22,23.52,9.41a23.25,23.25,0,0,1,1.4,27c-5,7.58-13.34,11.6-22.18,12.53a46.72,46.72,0,0,1-4.87.25c-26.6,0-29.12-21.1-29.12-21.1" style="fill:none;stroke:#7ce8dd;stroke-linecap:round;stroke-linejoin:round;stroke-width:1.92786718332016px"/><line x1="276.89" y1="31.27" x2="276.89" y2="158.3" style="fill:#0b3a42;stroke:#7ce8dd;stroke-linecap:round;stroke-linejoin:round;stroke-width:1.92786718332016px"/></g></g></svg>