<svg xmlns="http://www.w3.org/2000/svg" viewBox="0 0 69.31 64.37"><g><g><path d="M53.42,56.39a7.54,7.54,0,0,1-7.54,7.54H35a11,11,0,0,1-6.22-2.25,6.37,6.37,0,0,1-4.9,2.26,6.46,6.46,0,1,1,0-12.91,5.85,5.85,0,0,1,.73,0,11,11,0,0,1,21.08-2.19h.22A7.53,7.53,0,0,1,53.42,56.39Z" style="fill:#7ce8dd"/><polyline points="53.77 56.4 62.28 56.4 62.28 32.34" style="fill:none;stroke:#009191;stroke-linecap:round;stroke-linejoin:round;stroke-width:1.08929325123859px"/><polyline points="52.25 51.98 58.2 51.98 58.2 32.34" style="fill:none;stroke:#009191;stroke-linecap:round;stroke-linejoin:round;stroke-width:1.08929325123859px"/><polyline points="17.31 56.4 9.01 56.4 9.01 32.34" style="fill:none;stroke:#009191;stroke-linecap:round;stroke-linejoin:round;stroke-width:1.08359954839933px"/><polyline points="20.14 51.98 13.13 51.98 13.13 32.34" style="fill:none;stroke:#009191;stroke-linecap:round;stroke-linejoin:round;stroke-width:1.08359954839933px"/><polyline points="18.13 60.75 4.22 60.75 4.22 32.34" style="fill:none;stroke:#009191;stroke-linecap:round;stroke-linejoin:round;stroke-width:1.08359954839933px"/><line x1="35.41" y1="41.46" x2="35.41" y2="32.34" style="fill:none;stroke:#009191;stroke-linecap:round;stroke-linejoin:round;stroke-width:1.08359954839933px"/><rect x="0.54" y="0.54" width="16.94" height="31.8" style="fill:none;stroke:#009191;stroke-linecap:round;stroke-linejoin:round;stroke-width:1.08359954839933px"/><line x1="4.01" y1="27.11" x2="12.92" y2="27.11" style="fill:none;stroke:#009191;stroke-linecap:round;stroke-linejoin:round;stroke-width:1.08359954839933px"/><line x1="4.01" y1="22.77" x2="12.92" y2="22.77" style="fill:none;stroke:#009191;stroke-linecap:round;stroke-linejoin:round;stroke-width:1.08359954839933px"/><line x1="4.01" y1="18.43" x2="12.92" y2="18.43" style="fill:none;stroke:#009191;stroke-linecap:round;stroke-linejoin:round;stroke-width:1.08359954839933px"/><path d="M5.4,6.45A4.33,4.33,0,1,0,8.47,5.18V9.51" style="fill:none;stroke:#009191;stroke-linecap:round;stroke-linejoin:round;stroke-width:1.08359954839933px"/><rect x="27.03" y="0.54" width="16.94" height="31.8" style="fill:none;stroke:#009191;stroke-linecap:round;stroke-linejoin:round;stroke-width:1.08359954839933px"/><line x1="30.5" y1="27.11" x2="39.41" y2="27.11" style="fill:none;stroke:#009191;stroke-linecap:round;stroke-linejoin:round;stroke-width:1.08359954839933px"/><line x1="30.5" y1="22.77" x2="39.41" y2="22.77" style="fill:none;stroke:#009191;stroke-linecap:round;stroke-linejoin:round;stroke-width:1.08359954839933px"/><line x1="30.5" y1="18.43" x2="39.41" y2="18.43" style="fill:none;stroke:#009191;stroke-linecap:round;stroke-linejoin:round;stroke-width:1.08359954839933px"/><path d="M31.89,6.45A4.33,4.33,0,1,0,35,5.18V9.51" style="fill:none;stroke:#009191;stroke-linecap:round;stroke-linejoin:round;stroke-width:1.08359954839933px"/><rect x="51.83" y="0.54" width="16.94" height="31.8" style="fill:none;stroke:#009191;stroke-linecap:round;stroke-linejoin:round;stroke-width:1.08359954839933px"/><line x1="55.3" y1="27.11" x2="64.21" y2="27.11" style="fill:none;stroke:#009191;stroke-linecap:round;stroke-linejoin:round;stroke-width:1.08359954839933px"/><line x1="55.3" y1="22.77" x2="64.21" y2="22.77" style="fill:none;stroke:#009191;stroke-linecap:round;stroke-linejoin:round;stroke-width:1.08359954839933px"/><line x1="55.3" y1="18.43" x2="64.21" y2="18.43" style="fill:none;stroke:#009191;stroke-linecap:round;stroke-linejoin:round;stroke-width:1.08359954839933px"/><path d="M56.69,6.45a4.33,4.33,0,1,0,3.07-1.27V9.51" style="fill:none;stroke:#009191;stroke-linecap:round;stroke-linejoin:round;stroke-width:1.08359954839933px"/><path d="M53.42,56.39a7.54,7.54,0,0,1-7.54,7.54H35a11,11,0,0,1-6.22-2.25,6.37,6.37,0,0,1-4.9,2.26,6.46,6.46,0,1,1,0-12.91,5.85,5.85,0,0,1,.73,0,11,11,0,0,1,21.08-2.19h.22A7.53,7.53,0,0,1,53.42,56.39Z" style="fill:none;stroke:#009191;stroke-linecap:round;stroke-linejoin:round;stroke-width:0.880610333404217px"/></g></g></svg>