<svg xmlns="http://www.w3.org/2000/svg" viewBox="0 0 178.04 117.896"><defs><style>.a{fill:none;stroke:#7ce8dd;stroke-linecap:round;stroke-linejoin:round;stroke-width:1.951px;}</style></defs><g transform="translate(-1.024 -2384.656)"><path class="a" d="M4.347,0h9.09a0,0,0,0,1,0,0V42.146a0,0,0,0,1,0,0H4.347A4.347,4.347,0,0,1,0,37.8V4.347A4.347,4.347,0,0,1,4.347,0Z" transform="translate(15.437 2501.576) rotate(180)"/><path class="a" d="M15.437,2491.992h3.825a4.581,4.581,0,0,0,4.548-4.613v-14.358a4.58,4.58,0,0,0-4.548-4.612H15.437"/><path class="a" d="M24.948,2486.271h87.2v-25.047"/><line class="a" x2="87.196" transform="translate(24.948 2475.531)"/><line class="a" y2="18.002" transform="translate(101.683 2457.53)"/><path class="a" d="M101.683,2486.271v4.768a5.268,5.268,0,0,0,5.23,5.3h0a5.268,5.268,0,0,0,5.231-5.3v-4.768"/><path class="a" d="M100.888,2441.547l-3.135,7.57a6.035,6.035,0,0,0,3.479,7.988l7.724,2.782a5.9,5.9,0,0,0,7.49-3.449l3.192-8.176"/><path class="a" d="M78.162,2422.311l-3.531,9.466,68.8,25.083,7.226-19.124"/><path class="a" d="M178.089,2424.108,75.23,2385.631,63.81,2416.55l54.212,20.269,8.666-7.831,23.964,8.747Z"/><path class="a" d="M160.145,2433.02s5.182,9.122,0,16.14-15.112,3.446-15.112,3.446"/><line class="a" x1="9.609" y1="3.627" transform="translate(106.396 2425.447)"/></g></svg>