<svg xmlns="http://www.w3.org/2000/svg" viewBox="0 0 97.35 99.84"><g><g><path d="M26.18,98.82V57.19a22,22,0,0,1,22-21.95h0A21.94,21.94,0,0,1,70.07,57.19V97.72" style="fill:none;stroke:#009191;stroke-linecap:round;stroke-linejoin:round;stroke-width:2.04621067780437px"/><path d="M61.62,39.89V59.67A8.29,8.29,0,0,1,53.33,68H43.46a8.29,8.29,0,0,1-8.28-8.29V39.49" style="fill:none;stroke:#009191;stroke-linecap:round;stroke-linejoin:round;stroke-width:2.04621067780437px"/><path d="M18.47,78.12a35.32,35.32,0,1,1,61-1.86" style="fill:none;stroke:#009191;stroke-linecap:round;stroke-linejoin:round;stroke-width:2.04621067780437px"/><circle cx="90.29" cy="7.05" r="6.03" style="fill:#7ce8dd"/><circle cx="58.88" cy="7.05" r="6.03" style="fill:#7ce8dd"/><circle cx="38.41" cy="7.05" r="6.03" style="fill:#7ce8dd"/><circle cx="7.05" cy="7.05" r="6.03" style="fill:#7ce8dd"/><circle cx="7.05" cy="24.04" r="6.03" style="fill:#7ce8dd"/><circle cx="90.29" cy="24.04" r="6.03" style="fill:#7ce8dd"/><line x1="38.41" y1="13.08" x2="38.41" y2="25.48" style="fill:none;stroke:#009191;stroke-linecap:round;stroke-linejoin:round;stroke-width:2.04621067780437px"/><line x1="58.88" y1="13.08" x2="58.88" y2="25.62" style="fill:none;stroke:#009191;stroke-linecap:round;stroke-linejoin:round;stroke-width:2.04621067780437px"/><polyline points="84.26 7.05 71.38 7.05 71.38 32.54" style="fill:none;stroke:#009191;stroke-linecap:round;stroke-linejoin:round;stroke-width:2.04621067780437px"/><polyline points="84.26 24.04 79.4 24.04 79.4 42.43" style="fill:none;stroke:#009191;stroke-linecap:round;stroke-linejoin:round;stroke-width:2.04621067780437px"/><polyline points="13.08 24.04 18.11 24.04 18.11 41.19" style="fill:none;stroke:#009191;stroke-linecap:round;stroke-linejoin:round;stroke-width:2.04621067780437px"/><polyline points="13.08 7.05 26.15 7.05 26.15 31.93" style="fill:none;stroke:#009191;stroke-linecap:round;stroke-linejoin:round;stroke-width:2.04621067780437px"/><circle cx="90.29" cy="24.04" r="6.03" style="fill:none;stroke:#009191;stroke-linecap:round;stroke-linejoin:round;stroke-width:2.04621067780437px"/><circle cx="90.29" cy="7.05" r="6.03" style="fill:none;stroke:#009191;stroke-linecap:round;stroke-linejoin:round;stroke-width:2.04621067780437px"/><circle cx="58.88" cy="7.05" r="6.03" style="fill:none;stroke:#009191;stroke-linecap:round;stroke-linejoin:round;stroke-width:2.04621067780437px"/><circle cx="38.41" cy="7.05" r="6.03" style="fill:none;stroke:#009191;stroke-linecap:round;stroke-linejoin:round;stroke-width:2.04621067780437px"/><circle cx="7.05" cy="7.05" r="6.03" style="fill:none;stroke:#009191;stroke-linecap:round;stroke-linejoin:round;stroke-width:2.04621067780437px"/><circle cx="7.05" cy="24.04" r="6.03" style="fill:none;stroke:#009191;stroke-linecap:round;stroke-linejoin:round;stroke-width:2.04621067780437px"/><line x1="42.92" y1="85.22" x2="53.87" y2="85.22" style="fill:none;stroke:#009191;stroke-linecap:round;stroke-linejoin:round;stroke-width:2.04621067780437px"/></g></g></svg>