<svg xmlns="http://www.w3.org/2000/svg" viewBox="0 0 827.42 230.93"><g><g><path d="M0,51.16v.59A8.26,8.26,0,0,0,8.26,60h92.58a11.35,11.35,0,1,0,0-22.69,15.72,15.72,0,0,0-3.5.46,11.34,11.34,0,0,0-19-6.85C78,22.14,70.81,14.29,62,14.29A17.57,17.57,0,0,0,46.75,24a11.34,11.34,0,0,0-20.17,7.12,12.14,12.14,0,0,0,.18,2A12.63,12.63,0,0,0,13.43,44.72,8.26,8.26,0,0,0,0,51.16Z" style="fill:#1c8c7e;opacity:0.6000000000000001"/><path d="M715.24,110.51v.59a8.26,8.26,0,0,0,8.26,8.26h92.58a11.35,11.35,0,0,0,0-22.69,15.17,15.17,0,0,0-3.5.47,11.34,11.34,0,0,0-19.05-6.86c-.3-8.78-7.48-16.64-16.3-16.64A17.57,17.57,0,0,0,762,83.32a11.34,11.34,0,0,0-20.17,7.12,11.16,11.16,0,0,0,.18,2,12.63,12.63,0,0,0-13.33,11.61,8.26,8.26,0,0,0-13.43,6.44Z" style="fill:#1c8c7e;opacity:0.6000000000000001"/><path d="M404.74,228.32a47.12,47.12,0,1,1,18.34-90.54" style="fill:none;stroke:#fff;stroke-linecap:round;stroke-linejoin:round;stroke-width:3.33106852962281px"/><circle cx="325.06" cy="68.18" r="47.65" style="fill:none;stroke:#fff;stroke-linecap:round;stroke-linejoin:round;stroke-width:3.33106852962281px"/><path d="M515.83,181.2a47.11,47.11,0,1,1-16.5-35.82,47,47,0,0,1,10.72,13.18A47,47,0,0,1,515.83,181.2Z" style="fill:none;stroke:#fff;stroke-linecap:round;stroke-linejoin:round;stroke-width:3.33106852962281px"/><path d="M530.2,137.29a47.13,47.13,0,1,1,17.15,91" style="fill:none;stroke:#fff;stroke-linecap:round;stroke-linejoin:round;stroke-width:3.33106852962281px"/><line x1="566.33" y1="188.23" x2="611.21" y2="188.23" style="fill:none;stroke:#fff;stroke-linecap:round;stroke-linejoin:round;stroke-width:3.33106852962281px"/><line x1="622.93" y1="165.21" x2="632.3" y2="165.21" style="fill:none;stroke:#fff;stroke-linecap:round;stroke-linejoin:round;stroke-width:3.33106852962281px"/><line x1="554.01" y1="165.21" x2="613.56" y2="165.21" style="fill:none;stroke:#fff;stroke-linecap:round;stroke-linejoin:round;stroke-width:3.33106852962281px"/><path d="M494,181.2a25.32,25.32,0,1,1-25.32-25.32" style="fill:none;stroke:#fff;stroke-linecap:round;stroke-linejoin:round;stroke-width:3.33106852962281px"/><path d="M531.53,97.87s28.12,16.4,65.62,16.4c31,0,50.81-12.83,63.36-33.19A8.92,8.92,0,0,0,653,67.4H542" style="fill:none;stroke:#fff;stroke-linecap:round;stroke-linejoin:round;stroke-width:3.33106852962281px"/><path d="M437.79,107.24h75.05a23.38,23.38,0,0,0,23.38-23.38V56.07L374.51,67.4" style="fill:none;stroke:#fff;stroke-linecap:round;stroke-linejoin:round;stroke-width:3.33106852962281px"/><path d="M512.78,107.24s0,16.41-16.4,18.75" style="fill:none;stroke:#fff;stroke-linecap:round;stroke-linejoin:round;stroke-width:3.33106852962281px"/><path d="M398,67.4V83.55a56.52,56.52,0,0,0,40.84,54.3,29.76,29.76,0,0,0,8.29,1.12h.08" style="fill:none;stroke:#fff;stroke-linecap:round;stroke-linejoin:round;stroke-width:3.33106852962281px"/><path d="M461.22,121.3h26.71a8.45,8.45,0,0,1,8.45,8.45v1.85a8.47,8.47,0,0,1-5,7.7" style="fill:none;stroke:#fff;stroke-linecap:round;stroke-linejoin:round;stroke-width:3.33106852962281px"/><path d="M325.3,20.53H452.2a6.23,6.23,0,0,1,5.49,9.15c-5,9.71-16.54,23.66-41,23.66-32.81,0-63.28-23.43-63.28-23.43" style="fill:none;stroke:#fff;stroke-linecap:round;stroke-linejoin:round;stroke-width:3.33106852962281px"/><line x1="491.42" y1="36.94" x2="503.41" y2="36.94" style="fill:none;stroke:#fff;stroke-linecap:round;stroke-linejoin:round;stroke-width:3.33106852962281px"/><line x1="430.76" y1="36.94" x2="480.79" y2="36.94" style="fill:none;stroke:#fff;stroke-linecap:round;stroke-linejoin:round;stroke-width:3.33106852962281px"/><line x1="634.64" y1="51" x2="684.68" y2="51" style="fill:none;stroke:#fff;stroke-linecap:round;stroke-linejoin:round;stroke-width:3.33106852962281px"/><line x1="421.39" y1="1.78" x2="433.92" y2="1.78" style="fill:none;stroke:#fff;stroke-linecap:round;stroke-linejoin:round;stroke-width:3.33106852962281px"/><line x1="353.42" y1="1.78" x2="412.09" y2="1.78" style="fill:none;stroke:#fff;stroke-linecap:round;stroke-linejoin:round;stroke-width:3.33106852962281px"/><path d="M276.09,65.06s-18.75,28.12-60.93,7c4.68,37.49,49.21,46.87,82,35.15" style="fill:none;stroke:#fff;stroke-linecap:round;stroke-linejoin:round;stroke-width:3.33106852962281px"/><circle cx="301.62" cy="64.02" r="9.62" style="fill:none;stroke:#fff;stroke-linecap:round;stroke-linejoin:round;stroke-width:3.33106852962281px"/><line x1="328.82" y1="101.38" x2="378.03" y2="101.38" style="fill:none;stroke:#fff;stroke-linecap:round;stroke-linejoin:round;stroke-width:3.33106852962281px"/><path d="M397.51,83.81s-11.29,9.37-27.1,0" style="fill:none;stroke:#fff;stroke-linecap:round;stroke-linejoin:round;stroke-width:3.33106852962281px"/><line x1="757.15" y1="228.68" x2="761.4" y2="228.68" style="fill:none;stroke:#fff;stroke-linecap:round;stroke-linejoin:round;stroke-width:3.33106852962281px"/><line x1="655.63" y1="228.68" x2="747.75" y2="228.68" style="fill:none;stroke:#fff;stroke-linecap:round;stroke-linejoin:round;stroke-width:3.33106852962281px"/><line x1="114.96" y1="228.68" x2="84.27" y2="228.68" style="fill:none;stroke:#fff;stroke-linecap:round;stroke-linejoin:round;stroke-width:3.33106852962281px"/><line x1="126.25" y1="228.68" x2="644.21" y2="228.68" style="fill:none;stroke:#fff;stroke-linecap:round;stroke-linejoin:round;stroke-width:3.33106852962281px"/><line x1="702.09" y1="175.44" x2="702.09" y2="229.27" style="fill:none;stroke:#fff;stroke-linecap:round;stroke-linejoin:round;stroke-width:3.33106852962281px"/><path d="M714,183.94v3.14a11.72,11.72,0,0,1-5.12,9.74l-6.79,4.57" style="fill:none;stroke:#fff;stroke-linecap:round;stroke-linejoin:round;stroke-width:3.33106852962281px"/><path d="M615.69,228.82l32.25-25.27a26.84,26.84,0,0,1,33-.11l32.82,25.38" style="fill:none;stroke:#fff;stroke-linecap:round;stroke-linejoin:round;stroke-width:3.33106852962281px"/><line x1="171.15" y1="135.77" x2="171.15" y2="228.79" style="fill:none;stroke:#fff;stroke-linecap:round;stroke-linejoin:round;stroke-width:3.33106852962281px"/><path d="M185.32,142.38V155a15.59,15.59,0,0,1-6.68,12.79L171.15,173" style="fill:none;stroke:#fff;stroke-linecap:round;stroke-linejoin:round;stroke-width:3.33106852962281px"/><path d="M157,159.38v9.79a14.73,14.73,0,0,0,5.69,11.63l8.47,6.59" style="fill:none;stroke:#fff;stroke-linecap:round;stroke-linejoin:round;stroke-width:3.33106852962281px"/><line x1="94.66" y1="165.05" x2="94.66" y2="228.32" style="fill:none;stroke:#fff;stroke-linecap:round;stroke-linejoin:round;stroke-width:3.33106852962281px"/><path d="M82.38,173.55v3.14a11.63,11.63,0,0,0,5.28,9.75l7,4.56" style="fill:none;stroke:#fff;stroke-linecap:round;stroke-linejoin:round;stroke-width:3.33106852962281px"/><line x1="305.44" y1="175.44" x2="305.44" y2="229.27" style="fill:none;stroke:#fff;stroke-linecap:round;stroke-linejoin:round;stroke-width:3.33106852962281px"/><path d="M317.35,183.94v3.14a11.7,11.7,0,0,1-5.12,9.74l-6.79,4.57" style="fill:none;stroke:#fff;stroke-linecap:round;stroke-linejoin:round;stroke-width:3.33106852962281px"/><path d="M131.49,228.32l46.28-36.27a38.52,38.52,0,0,1,47.33-.15l47.1,36.42" style="fill:none;stroke:#fff;stroke-linecap:round;stroke-linejoin:round;stroke-width:3.33106852962281px"/><path d="M232.54,195.83a38.54,38.54,0,0,1,47.34-.16l42.21,32.65" style="fill:none;stroke:#fff;stroke-linecap:round;stroke-linejoin:round;stroke-width:3.33106852962281px"/><path d="M100.17,45.07a29.29,29.29,0,0,1,39.34-40" style="fill:none;stroke:#fff;stroke-linecap:round;stroke-linejoin:round;stroke-width:3.33106852962281px"/><path d="M149.75,14.08a29.28,29.28,0,0,1-38.62,42.19" style="fill:none;stroke:#fff;stroke-linecap:round;stroke-linejoin:round;stroke-width:3.33106852962281px"/><circle cx="125.82" cy="30.94" r="14.69" style="fill:none;stroke:#fff;stroke-linecap:round;stroke-linejoin:round;stroke-width:3.33106852962281px"/></g></g></svg>