<svg xmlns="http://www.w3.org/2000/svg" viewBox="0 0 418.31 185.63"><defs><style>.cls-1{fill:#7ce8dd;}.cls-2{fill:#fff;stroke-width:1.44px;}.cls-2,.cls-4,.cls-5,.cls-6,.cls-7{stroke:#009191;stroke-linecap:round;stroke-linejoin:round;}.cls-3{fill:#ffb463;}.cls-4,.cls-5,.cls-6,.cls-7{fill:none;}.cls-4{stroke-width:1.44px;}.cls-5{stroke-width:1.45px;}.cls-6{stroke-width:1.46px;}.cls-7{stroke-width:1.46px;}</style></defs><g><g><path class="cls-1" d="M182,92.38V93.5a15.66,15.66,0,0,0,15.66,15.66H373.21a21.51,21.51,0,1,0,0-43,29.5,29.5,0,0,0-6.64.89,21.51,21.51,0,0,0-36.12-13c-.57-16.66-14.18-31.56-30.9-31.56-12.25,0-23.87,8-28.9,18.36A21.51,21.51,0,0,0,232.4,54.34a21.88,21.88,0,0,0,.34,3.82,24,24,0,0,0-25.28,22A15.65,15.65,0,0,0,182,92.38Z"/><path class="cls-1" d="M326.65,36.23v.48a6.75,6.75,0,0,0,6.75,6.75H409a9.27,9.27,0,0,0,0-18.54,12.92,12.92,0,0,0-2.86.38,9.27,9.27,0,0,0-15.56-5.6c-.25-7.17-6.11-13.59-13.32-13.59A14.33,14.33,0,0,0,364.85,14a9.27,9.27,0,0,0-16.48,5.82,9.81,9.81,0,0,0,.14,1.64A10.33,10.33,0,0,0,337.62,31a6.74,6.74,0,0,0-11,5.26Z"/><polyline class="cls-2" points="268.68 93.1 268.68 0.72 314.77 0.72 314.77 88.15"/><polyline class="cls-2" points="372.46 100.23 372.46 0.72 326.41 0.72 326.41 86.67"/><path class="cls-2" d="M386.67,109.47v.7a9.77,9.77,0,0,1-9.78,9.77H267.28a13.43,13.43,0,1,1,0-26.86,18.15,18.15,0,0,1,4.15.56A13.43,13.43,0,0,1,294,85.52c.35-10.4,8.85-19.7,19.29-19.7a20.81,20.81,0,0,1,18.05,11.46,13.43,13.43,0,0,1,23.88,8.43A14.45,14.45,0,0,1,355,88.1a15,15,0,0,1,15.78,13.75,9.77,9.77,0,0,1,15.9,7.62Z"/><circle class="cls-1" cx="238.05" cy="143.07" r="12.41"/><circle class="cls-1" cx="200.18" cy="143.07" r="12.41"/><circle class="cls-3" cx="292.76" cy="173.22" r="12.41"/><circle class="cls-1" cx="320.26" cy="157.81" r="12.41"/><circle class="cls-1" cx="347.62" cy="173.22" r="12.41"/><circle class="cls-1" cx="402.47" cy="143.07" r="12.41"/><path class="cls-2" d="M266.3,120H376.74a9.78,9.78,0,0,0,9.78-9.78v-.69a9.78,9.78,0,0,0-9.78-9.78h0a9.77,9.77,0,0,0-9.77,9.78v1.67"/><path class="cls-2" d="M355.06,88.22c9.76-.84,15.6,6.28,15.6,13.69"/><path class="cls-2" d="M334,96.75a13.43,13.43,0,1,1,20.28-6.37"/><path class="cls-2" d="M271.75,99.16A13.43,13.43,0,1,1,293,105.8"/><path class="cls-2" d="M267.14,120a13.43,13.43,0,1,1,4.13-26.21"/><path class="cls-2" d="M293.82,85.14a19.31,19.31,0,0,1,36.87-8"/><line class="cls-4" x1="268.68" y1="16.44" x2="314.77" y2="16.44"/><line class="cls-4" x1="326.4" y1="16.44" x2="372.48" y2="16.44"/><line class="cls-4" x1="268.68" y1="51.03" x2="314.77" y2="51.03"/><line class="cls-4" x1="326.4" y1="51.03" x2="372.48" y2="51.03"/><line class="cls-4" x1="288.36" y1="26.8" x2="307.79" y2="26.8"/><line class="cls-4" x1="288.36" y1="33.73" x2="307.79" y2="33.73"/><line class="cls-4" x1="345.34" y1="26.8" x2="364.77" y2="26.8"/><line class="cls-4" x1="345.34" y1="33.73" x2="364.77" y2="33.73"/><line class="cls-4" x1="288.36" y1="41.18" x2="307.79" y2="41.18"/><line class="cls-4" x1="345.34" y1="41.18" x2="364.77" y2="41.18"/><line class="cls-4" x1="339.14" y1="26.8" x2="334.22" y2="26.8"/><line class="cls-4" x1="339.14" y1="33.73" x2="334.22" y2="33.73"/><line class="cls-4" x1="339.14" y1="41.18" x2="334.22" y2="41.18"/><line class="cls-4" x1="282.19" y1="26.8" x2="277.26" y2="26.8"/><line class="cls-4" x1="282.19" y1="33.73" x2="277.26" y2="33.73"/><line class="cls-4" x1="282.19" y1="41.18" x2="277.26" y2="41.18"/><polyline class="cls-4" points="364.05 119.96 364.05 143.07 393.72 143.07"/><polyline class="cls-5" points="277.5 119.96 277.5 143.07 247.48 143.07"/><circle class="cls-4" cx="402.47" cy="143.07" r="8.75"/><circle class="cls-4" cx="238.05" cy="143.07" r="8.75"/><circle class="cls-4" cx="292.76" cy="173.22" r="8.75"/><line class="cls-5" x1="292.76" y1="119.96" x2="292.76" y2="163.72"/><circle class="cls-4" cx="347.62" cy="173.22" r="8.75"/><line class="cls-5" x1="347.62" y1="119.96" x2="347.62" y2="163.72"/><circle class="cls-4" cx="320.26" cy="157.81" r="8.75"/><line class="cls-5" x1="320.26" y1="120.68" x2="320.26" y2="148.31"/><path class="cls-5" d="M129.59,104.28V47.89a9.34,9.34,0,0,0-9.34-9.33H16.11a9.34,9.34,0,0,0-9.34,9.33v56.39Z"/><path class="cls-5" d="M.72,104.28H134.6v3a12,12,0,0,1-12,12H12.69a12,12,0,0,1-12-12Z"/><line class="cls-5" x1="57.52" y1="110.45" x2="79.51" y2="110.45"/><path class="cls-5" d="M59.17,78.1l.54-.43a11.45,11.45,0,0,1,16.7.43h0"/><path class="cls-5" d="M51.23,69.13c10-9,22.8-9,33.21.81"/><path class="cls-5" d="M45.27,60.68a29.5,29.5,0,0,1,44.78,1"/><circle class="cls-5" cx="67.83" cy="89.33" r="3.74"/><polyline class="cls-6" points="68.52 119.96 68.52 143.07 190.43 143.07"/><ellipse class="cls-7" cx="200.08" cy="143.07" rx="8.95" ry="8.75"/></g></g></svg>