<svg xmlns="http://www.w3.org/2000/svg" viewBox="0 0 71.27 69.97"><g><g><path d="M53.59,66.05H70.73L59.81,52.59a92.07,92.07,0,0,1-12.33-2.73c-4.79-1.6-8.79-1.79-12,2.35C31.86,48,28.15,48.38,22,50.27A83.2,83.2,0,0,1,11.18,53L.54,66h31.7s.23,3.48,3.22,3.48,3.47-3.38,3.47-3.38h10" style="fill:none;stroke:#009191;stroke-linecap:round;stroke-linejoin:round;stroke-width:1.08929325123859px"/><polyline points="35.46 53.79 35.46 64.2 38.93 66.05" style="fill:none;stroke:#009191;stroke-linecap:round;stroke-linejoin:round;stroke-width:1.08929325123859px"/><line x1="32.24" y1="65.95" x2="35.46" y2="64.2" style="fill:none;stroke:#009191;stroke-linecap:round;stroke-linejoin:round;stroke-width:1.08929325123859px"/><path d="M2,64.2s9.6-.57,16.64-3.84,13.64-2.81,16.84,1.92" style="fill:none;stroke:#009191;stroke-linecap:round;stroke-linejoin:round;stroke-width:1.08929325123859px"/><path d="M69,64.2s-9.62-.57-16.68-3.84-13.66-2.81-16.87,1.92" style="fill:none;stroke:#009191;stroke-linecap:round;stroke-linejoin:round;stroke-width:1.0904937503092px"/><line x1="60.9" y1="49.38" x2="70.37" y2="23.53" style="fill:none;stroke:#009191;stroke-linecap:round;stroke-linejoin:round;stroke-width:1.0904937503092px"/><line x1="10.01" y1="49.38" x2="1.98" y2="30.69" style="fill:none;stroke:#009191;stroke-linecap:round;stroke-linejoin:round;stroke-width:1.0904937503092px"/><line x1="10.5" y1="12.67" x2="10.5" y2="17.13" style="fill:none;stroke:#009191;stroke-linecap:round;stroke-linejoin:round;stroke-width:1.0904937503092px"/><line x1="10.5" y1="21.3" x2="10.5" y2="25.76" style="fill:none;stroke:#009191;stroke-linecap:round;stroke-linejoin:round;stroke-width:1.0904937503092px"/><line x1="17.04" y1="19.22" x2="12.58" y2="19.22" style="fill:none;stroke:#009191;stroke-linecap:round;stroke-linejoin:round;stroke-width:1.0904937503092px"/><line x1="8.41" y1="19.22" x2="3.95" y2="19.22" style="fill:none;stroke:#009191;stroke-linecap:round;stroke-linejoin:round;stroke-width:1.0904937503092px"/><line x1="53.59" y1="27.93" x2="53.59" y2="32.39" style="fill:none;stroke:#009191;stroke-linecap:round;stroke-linejoin:round;stroke-width:1.0904937503092px"/><line x1="53.59" y1="36.56" x2="53.59" y2="41.03" style="fill:none;stroke:#009191;stroke-linecap:round;stroke-linejoin:round;stroke-width:1.0904937503092px"/><line x1="60.14" y1="34.48" x2="55.67" y2="34.48" style="fill:none;stroke:#009191;stroke-linecap:round;stroke-linejoin:round;stroke-width:1.0904937503092px"/><line x1="51.51" y1="34.48" x2="47.04" y2="34.48" style="fill:none;stroke:#009191;stroke-linecap:round;stroke-linejoin:round;stroke-width:1.0904937503092px"/><line x1="27.93" y1="13.34" x2="27.93" y2="4.83" style="fill:none;stroke:#009191;stroke-linecap:round;stroke-linejoin:round;stroke-width:1.0904937503092px"/><line x1="27.93" y1="2.57" x2="27.93" y2="0.55" style="fill:none;stroke:#009191;stroke-linecap:round;stroke-linejoin:round;stroke-width:1.0904937503092px"/><line x1="61.36" y1="23.53" x2="61.36" y2="15.02" style="fill:none;stroke:#009191;stroke-linecap:round;stroke-linejoin:round;stroke-width:1.0904937503092px"/><line x1="61.36" y1="12.75" x2="61.36" y2="10.73" style="fill:none;stroke:#009191;stroke-linecap:round;stroke-linejoin:round;stroke-width:1.0904937503092px"/><polygon points="35.17 36.91 29.97 34.7 26.26 38.95 26.76 33.33 21.57 31.11 27.07 29.85 27.57 24.23 30.47 29.07 35.98 27.81 32.27 32.07 35.17 36.91" style="fill:#7ce8dd"/></g></g></svg>