<svg xmlns="http://www.w3.org/2000/svg" viewBox="0 0 108.09 95.36"><g><g><line x1="41.27" y1="55.21" x2="54.09" y2="55.21" style="fill:none;stroke:#009191;stroke-linecap:round;stroke-linejoin:round;stroke-width:2.04621067780437px"/><line x1="67.69" y1="55.21" x2="61.95" y2="55.21" style="fill:none;stroke:#009191;stroke-linecap:round;stroke-linejoin:round;stroke-width:2.04621067780437px"/><polyline points="93.22 58.11 93.22 17.13 81.96 5.86 75.88 5.86" style="fill:none;stroke:#009191;stroke-linecap:round;stroke-linejoin:round;stroke-width:2.04621067780437px"/><polyline points="42.79 5.79 17.62 5.79 17.62 63.87" style="fill:none;stroke:#009191;stroke-linecap:round;stroke-linejoin:round;stroke-width:2.04621067780437px"/><rect x="43.23" y="1.02" width="32.41" height="26.93" style="fill:none;stroke:#009191;stroke-linecap:round;stroke-linejoin:round;stroke-width:2.04621067780437px"/><polyline points="32.91 8.16 32.91 27.95 43.59 27.95" style="fill:none;stroke:#009191;stroke-linecap:round;stroke-linejoin:round;stroke-width:2.04621067780437px"/><polyline points="61.29 20.91 61.29 8.16 67.08 8.16 67.08 20.91 64.82 20.91" style="fill:none;stroke:#009191;stroke-linecap:round;stroke-linejoin:round;stroke-width:2.04621067780437px"/><line x1="85.69" y1="57.43" x2="81.66" y2="57.43" style="fill:none;stroke:#009191;stroke-linecap:round;stroke-linejoin:round;stroke-width:2.04621067780437px"/><line x1="85.69" y1="52.52" x2="81.66" y2="52.52" style="fill:none;stroke:#009191;stroke-linecap:round;stroke-linejoin:round;stroke-width:2.04621067780437px"/><line x1="27.21" y1="57.43" x2="23.18" y2="57.43" style="fill:none;stroke:#009191;stroke-linecap:round;stroke-linejoin:round;stroke-width:2.04621067780437px"/><line x1="27.21" y1="52.52" x2="23.18" y2="52.52" style="fill:none;stroke:#009191;stroke-linecap:round;stroke-linejoin:round;stroke-width:2.04621067780437px"/><path d="M32.91,68.71V39.13H75.64v25.5H73.79s-3.64-9.86-17.2-9.86c-8.91,0-15.2,10.46-15.2,15A12.59,12.59,0,0,0,32.91,68.71Z" style="fill:#7ce8dd"/><line x1="41.27" y1="62.91" x2="43.59" y2="62.91" style="fill:none;stroke:#009191;stroke-linecap:round;stroke-linejoin:round;stroke-width:2.04621067780437px"/><line x1="41.27" y1="47.52" x2="67.69" y2="47.52" style="fill:none;stroke:#009191;stroke-linecap:round;stroke-linejoin:round;stroke-width:2.04621067780437px"/><path d="M82.18,76.24A12.45,12.45,0,1,1,94.62,88.8H58.11A17,17,0,1,1,73.62,65.1" style="fill:none;stroke:#009191;stroke-linecap:round;stroke-linejoin:round;stroke-width:2.04621067780437px"/><path d="M100,64.92A12.88,12.88,0,0,0,93.22,52.6v11" style="fill:none;stroke:#009191;stroke-linecap:round;stroke-linejoin:round;stroke-width:2.04621067780437px"/><path d="M11.19,69.88C9.24,59.52,17.62,52.6,17.62,52.6V70.43a13.65,13.65,0,0,0-5.72-.71" style="fill:none;stroke:#009191;stroke-linecap:round;stroke-linejoin:round;stroke-width:2.04621067780437px"/><path d="M23.39,74.86a17.31,17.31,0,0,1,18-5.48" style="fill:none;stroke:#009191;stroke-linecap:round;stroke-linejoin:round;stroke-width:2.04621067780437px"/><path d="M25.67,82A12.33,12.33,0,1,0,13.35,94.34H65.59a16.65,16.65,0,0,0,12.18-5.27" style="fill:none;stroke:#009191;stroke-linecap:round;stroke-linejoin:round;stroke-width:2.04621067780437px"/><path d="M67.48,70a17.29,17.29,0,0,1,13.23-6.15,17,17,0,0,1,4.77.67" style="fill:none;stroke:#009191;stroke-linecap:round;stroke-linejoin:round;stroke-width:2.04621067780437px"/></g></g></svg>