<svg xmlns="http://www.w3.org/2000/svg" viewBox="0 0 51.7 59.29"><g><g><rect x="5.74" y="24.07" width="16.42" height="3.81" style="fill:#00e8dd"/><rect x="5.74" y="14.37" width="16.42" height="3.81" style="fill:#00e8dd"/><polygon points="43.61 12.38 35.48 18.58 35.48 23.89 43.61 18 43.61 12.38" style="fill:#00e8dd"/><polygon points="43.61 23.68 35.48 29.88 35.48 31.52 43.61 31.52 43.61 23.68" style="fill:#00e8dd"/><rect x="0.54" y="8.48" width="26.48" height="5.89" rx="2.39" ry="2.39" style="fill:none;stroke:#009191;stroke-linecap:round;stroke-linejoin:round;stroke-width:1.08929325123859px"/><rect x="0.54" y="18.18" width="26.48" height="5.89" rx="2.39" ry="2.39" style="fill:none;stroke:#009191;stroke-linecap:round;stroke-linejoin:round;stroke-width:1.08929325123859px"/><rect x="0.54" y="27.88" width="26.48" height="5.89" rx="2.39" ry="2.39" style="fill:none;stroke:#009191;stroke-linecap:round;stroke-linejoin:round;stroke-width:1.08929325123859px"/><rect x="27.62" y="46.97" width="17.85" height="8.03" rx="3.15" ry="3.15" style="fill:none;stroke:#009191;stroke-linecap:round;stroke-linejoin:round;stroke-width:1.08929325123859px"/><rect x="45.47" y="49.11" width="5.68" height="3.75" style="fill:none;stroke:#009191;stroke-linecap:round;stroke-linejoin:round;stroke-width:1.08929325123859px"/><rect x="33.73" y="55" width="7.71" height="3.75" style="fill:none;stroke:#009191;stroke-linecap:round;stroke-linejoin:round;stroke-width:1.08929325123859px"/><rect x="33.73" y="41.58" width="7.71" height="5.39" style="fill:none;stroke:#009191;stroke-linecap:round;stroke-linejoin:round;stroke-width:1.08929325123859px"/><path d="M10.31,33.77H29.9l3.83-2.25H44.94v5.13A4.93,4.93,0,0,1,40,41.58H15.24a4.93,4.93,0,0,1-4.93-4.93Z" style="fill:none;stroke:#009191;stroke-linecap:round;stroke-linejoin:round;stroke-width:1.08929325123859px"/><rect x="35.48" y="10.63" width="8.14" height="20.89" style="fill:none;stroke:#009191;stroke-linecap:round;stroke-linejoin:round;stroke-width:1.08929325123859px"/><path d="M27.62,49.11v3.75h-3.3a2.79,2.79,0,0,1-2.1,1,2.82,2.82,0,1,1,2.1-4.7Z" style="fill:none;stroke:#009191;stroke-linecap:round;stroke-linejoin:round;stroke-width:1.08929325123859px"/><path d="M10.31,8.38H29.9l3.83,2.25H44.94V5.48A4.94,4.94,0,0,0,40,.54H15.24a4.94,4.94,0,0,0-4.93,4.94Z" style="fill:none;stroke:#009191;stroke-linecap:round;stroke-linejoin:round;stroke-width:1.08929325123859px"/><line x1="5.74" y1="14.37" x2="5.74" y2="18.18" style="fill:none;stroke:#009191;stroke-linecap:round;stroke-linejoin:round;stroke-width:1.08929325123859px"/><line x1="22.15" y1="14.37" x2="22.15" y2="18.18" style="fill:none;stroke:#009191;stroke-linecap:round;stroke-linejoin:round;stroke-width:1.08929325123859px"/><line x1="5.74" y1="24.18" x2="5.74" y2="27.44" style="fill:none;stroke:#009191;stroke-linecap:round;stroke-linejoin:round;stroke-width:1.08929325123859px"/><line x1="22.15" y1="24.18" x2="22.15" y2="27.44" style="fill:none;stroke:#009191;stroke-linecap:round;stroke-linejoin:round;stroke-width:1.08929325123859px"/><line x1="43.61" y1="24.02" x2="35.48" y2="29.9" style="fill:none;stroke:#009191;stroke-linecap:round;stroke-linejoin:round;stroke-width:1.08929325123859px"/><line x1="43.61" y1="18.13" x2="35.48" y2="24.01" style="fill:none;stroke:#009191;stroke-linecap:round;stroke-linejoin:round;stroke-width:1.08929325123859px"/><line x1="43.61" y1="12.4" x2="35.48" y2="18.27" style="fill:none;stroke:#009191;stroke-linecap:round;stroke-linejoin:round;stroke-width:1.08929325123859px"/></g></g></svg>