<svg xmlns="http://www.w3.org/2000/svg" viewBox="0 0 418.65 33.68"><g><g><path d="M144.49,10c-2.53.05-5.06,0-7.58,0-1.93,0-3.09,1.24-3.33,3.27a26.57,26.57,0,0,1,0,5.35,3.09,3.09,0,0,0,2.94,3.28,23,23,0,0,1,5.68,0c.72.79.27,1.4-.33,2a.85.85,0,0,1-.28.26c-.32.14-.71,0-1.05,0a20.82,20.82,0,0,0-3.78.18,8.28,8.28,0,0,0,2.13,2.4c1.31-.05,2.61-.07,3.93,0,1.8-.41,2.71-1.38,2.72-3.15,0-4.16,0-8.33,0-12.48C145.57,10.33,145.36,10,144.49,10Zm-4.81,9c-3.15,0-3.15,0-3.15-3.15,0-.44,0-.89,0-1.33A1.27,1.27,0,0,1,138,13h1.48c3.1,0,3.1,0,3.1,3.09C142.54,19,142.54,19,139.68,19Z" style="fill:#fff"/><path d="M126.5,17.55c0-3.53,0-7.07,0-10.6,0-.48-.16-1,.18-1.44-.34-.56-.89-.23-1.34-.32-1.3-.23-1.82.26-1.64,1.6.1.74,0,1.49,0,2.23s-.29,1-1,1c-1.54,0-3.08-.06-4.62,0a3.33,3.33,0,0,0-3.36,3.28c-.08,1.78-.07,3.57,0,5.36a3.17,3.17,0,0,0,3,3.26,34,34,0,0,1,4.84-.15h0l2.26,0h.32c1.15,0,1.39-.35,1.38-1.45v-.12l0-2.67Zm-2.76-3.17a13.2,13.2,0,0,0,0,1.78c0,2.83,0,2.83-2.89,2.83-3.14,0-3.14,0-3.14-3.19,0-.44,0-.89,0-1.34A1.3,1.3,0,0,1,119.19,13c1,0,2.09.07,3.12,0S123.89,13.21,123.74,14.38Z" style="fill:#fff"/><path d="M195.65,20.62c0-2.57,0-5.15,0-7.72,0-2.88,0-2.94-2.83-2.86-2.26.05-4.55-.32-6.79.23a1,1,0,0,0,.17.1l-.4,0a2.86,2.86,0,0,0-2.11,2.95,21.11,21.11,0,0,1,0,5.67c.24,1.85,1.08,2.68,3,3a54.31,54.31,0,0,1,8.65,0C196,21.61,195.64,21.06,195.65,20.62ZM187.3,10.45h3C189.33,10.47,188.32,10.49,187.3,10.45ZM186.66,16c0-3,0-3,2.92-3h.15c2.94,0,2.94,0,2.94,3s0,3-3,3S186.66,19,186.66,16Z" style="fill:#fff"/><path d="M176.59,10.58h0c-.46-.4-1-.26-1.54-.26-2.59,0-5.17,0-7.76,0a3,3,0,0,0-2.43,3.11c-.07,1.79-.06,3.58,0,5.36s1.14,2.89,3,3.2a19.4,19.4,0,0,1,3.65-.15c1.65-.1,3.31.2,4.94-.15h.07l.09,0C176.71,17.93,176.76,14.25,176.59,10.58ZM167.84,16c0-.35,0-.7,0-1-.15-1.43.48-2,1.9-1.93a13.33,13.33,0,0,0,2.68,0c1.23-.13,1.6.37,1.45,1.51a12.32,12.32,0,0,0,0,1.49c0,3,0,3-3,3S167.84,19,167.84,16Z" style="fill:#fff"/><path d="M155.35,16.28l0,5.37c-.85.39-1.8-.1-2.65.29-.54-.22-.3-.69-.3-1,0-4.83,0-9.66,0-14.49,0-1.34.67-1.24,1.55-1.25s1.58-.07,1.53,1.26c-.12,3.08-.06,6.17-.07,9.25C155.13,15.89,155.32,16.08,155.35,16.28Z" style="fill:#fff"/><path d="M155.35,16.28c-.3-.18-.33-.38,0-.6a8.81,8.81,0,0,0,2.92-3.18c1.45-2.13,3.2-3.11,5.86-2.27-1.33,1.62-2.66,3.32-4.08,4.94-.56.64-.62,1,0,1.73,1.27,1.44,2.44,3,3.64,4.47-.38.71-1,.34-1.6.42a5.54,5.54,0,0,0-1.62.12,57.47,57.47,0,0,1-4-4.63C156.06,16.92,155.88,16.42,155.35,16.28Z" style="fill:#fff"/><path d="M178.94,21.9c-.47-.39-.23-.92-.23-1.39,0-4.47,0-8.94,0-13.41,0-1.94,0-1.94,1.88-1.91.25,0,.49,0,.74,0a10.34,10.34,0,0,1,.13,3.09q0,6.54,0,13.08C180.76,22.29,179.73,21.48,178.94,21.9Z" style="fill:#fff"/><path d="M131.7,16.13c0,1.64,0,3.28,0,4.91,0,1.3-.86.95-1.53,1s-1.55.33-1.53-1c0-3.37,0-6.75,0-10.13,0-1.29,1-.85,1.6-.88s1.47-.3,1.45.89C131.67,12.65,131.7,14.39,131.7,16.13Z" style="fill:#fff"/><path d="M147.55,21.65c0-3.57,0-7.14-.07-10.71,0-1.17.78-1,1.41-.9s1.63-.5,1.63.82c0,3.57,0,7.14,0,10.71,0,.12-.15.23-.23.34-.31-3.6-.1-7.2-.1-10.81,0-.13.05-.18,0-.16q0,5.06,0,10.08c0,.58-.25.82-.81.77A4.49,4.49,0,0,1,147.55,21.65Z" style="fill:#fff"/><path d="M147.52,6.57c-.36-1.55.7-1.3,1.66-1.41,1.55-.17,1.25.83,1.37,1.75.18,1.46-.73,1.23-1.63,1.32C147.53,8.37,147.32,7.68,147.52,6.57Z" style="fill:#fff"/><path d="M131.66,6.73c.37,1.41-.43,1.48-1.53,1.51s-1.52-.31-1.51-1.49.28-1.63,1.56-1.61S132,5.43,131.66,6.73Z" style="fill:#fff"/><path d="M117.71,21.93c.81-.57,1.73-.2,2.59-.27,2-.15,4.55.83,5.72-.39s.3-3.78.33-5.75c.05-2.83,0-5.65,0-8.48,0-.52-.2-1.11.32-1.53,0,5.16,0,10.31.07,15.47,0,.77-.24,1.05-1,1C123.06,22,120.38,22,117.71,21.93Z" style="fill:#fff"/><path d="M176.54,10.6c-2.58,0-5.16,0-7.75,0-.52,0-1.1.2-1.52-.32,2.62-.56,5.28-.12,7.92-.23.53,0,1.16-.31,1.62.27A.63.63,0,0,1,176.54,10.6Z" style="fill:#fff"/><path d="M181.32,21.65V5.24c.42,0,.4.37.4.66l-.06,15.75A.23.23,0,0,1,181.32,21.65Z" style="fill:#fff"/><path d="M147.55,21.65c2.75,0,2.39.31,2.41-2.34a85.42,85.42,0,0,1,.3-8.61V21.91C149.34,21.92,148.39,22.36,147.55,21.65Z" style="fill:#fff"/><path d="M176.54,10.6l.27-.29.06,11.08c0,.25,0,.5-.33.56-.1-.07-.14-.13-.1-.2s.06-.1.1-.1Z" style="fill:#fff"/><path d="M186,10.27h9c-3.08.15-6.17.67-9.24.07A.17.17,0,0,1,186,10.27Z" style="fill:#fff"/><path d="M186.7,21.94c.75-.58,1.62-.3,2.41-.26,2.08.08,4.19-.37,6.24.26C192.47,22.06,189.58,22.06,186.7,21.94Z" style="fill:#fff"/><path d="M176.54,21.65V22h-8.66c.81-.59,1.72-.25,2.58-.27C172.49,21.61,174.51,21.65,176.54,21.65Z" style="fill:#fff"/><path d="M138.89,26.76a4.86,4.86,0,0,1,3.92,0A9.42,9.42,0,0,1,138.89,26.76Z" style="fill:#fff"/><path d="M136.52,21.93a11.7,11.7,0,0,1,5.67,0Z" style="fill:#fff"/><path d="M183.7,13.28a11.27,11.27,0,0,1,0,5.68A39.88,39.88,0,0,1,183.7,13.28Z" style="fill:#fff"/><path d="M133.57,13.3a11.52,11.52,0,0,1,0,5.35Z" style="fill:#fff"/><path d="M141.87,23.92c-.65.83-1.54.32-2.32.4s-1.86,0-2.79,0c-.17-.67.39-.36.58-.37C138.85,23.94,140.36,23.94,141.87,23.92Z" style="fill:#fff"/><path d="M160.42,21.91c1-.65,2.23.13,3.22-.54.39.35.53.64-.19.63C162.44,22,161.43,21.94,160.42,21.91Z" style="fill:#fff"/><path d="M152.65,21.94c.83-.58,1.77-.16,2.65-.29C154.49,22.39,153.54,21.89,152.65,21.94Z" style="fill:#fff"/><path d="M181.32,21.65h.34c-.85.73-1.8.28-2.72.25C179.69,21.39,180.53,21.77,181.32,21.65Z" style="fill:#fff"/><path d="M143,13.32v5.29h-.14V13.32Z" style="fill:#fff"/><path d="M137.73,19.34h4.1v.12h-4.1Z" style="fill:#fff"/><path d="M118.91,19.34H123v.12h-4.09Z" style="fill:#fff"/><path d="M192.34,19.48h-4.66v-.11h4.66Z" style="fill:#fff"/><path d="M186.32,14.25v3.8h-.15V14.26Z" style="fill:#fff"/><path d="M168.79,19.35h4.69v.11h-4.69Z" style="fill:#fff"/><path d="M167.36,17.75V14.27h.12v3.48Z" style="fill:#fff"/><path d="M179.19,6.22V21H179V6.16Z" style="fill:#fff"/><path d="M369.91,22.78q-.72-8.91-1.4-17.81c-.1-1.29-.67-1.92-2-1.81-2.51.21-5,.45-7.53.62-.66.06-.59.26-.61.84-.14,3.79-.4,7.55-.6,11.33a10.9,10.9,0,0,0,.12,4.18,1.72,1.72,0,0,0,2.22,1.35c1.8-.41,3.9-3.63,3.77-5.85s-1.72-3-3.72-3.34c1.83-.78,3.63-1.09,5.26.35s1.58,3.21.93,5a9,9,0,0,1-2.78,3.88c-1.89,1.59-4,2.36-6.41,1.28s-2.55-3.2-2.48-5.36c.12-3.92.35-7.84.51-11.76,0-.47.38-1.18-.13-1.35a7.32,7.32,0,0,0-3.93.25c-1,.27-.87,1.13-.79,1.92l1.47,17.8a2.9,2.9,0,0,0,1.37,2.43c2.35,1.52,4.67,3.08,7,4.68a1.9,1.9,0,0,0,2.78-.22c2-2,4-3.91,6.08-5.81A2.91,2.91,0,0,0,369.91,22.78Zm-8.73,7.45a1.6,1.6,0,0,1,.16-3.2,1.59,1.59,0,0,1,1.55,1.65C362.72,29.68,362.15,30.29,361.18,30.23Z" style="fill:#fff"/><path d="M384.55,12.63c2.57-2.05,4.43-1.86,6.47.71.5-.43,1-.91,1.5-1.28a3.72,3.72,0,0,1,6.06,2.22c.68,2.85-.2,5.71-.15,8.57,0,.7-.58.65-1.07.67-.68,0-1.06-.2-1-.95.09-1.47.17-2.93.24-4.4a14.88,14.88,0,0,0,.05-2.31c-.13-1.39-.55-2.72-2.26-2.78a2.76,2.76,0,0,0-2.91,2.5,27.61,27.61,0,0,0-.23,3.76c-.07,1.05-.19,2.1-.23,3.14,0,.83-.44,1.05-1.2,1.05-.95,0-1-.57-.92-1.25.11-2,.23-4.05.3-6.08.05-1.51-.29-2.94-2.08-3.1a2.75,2.75,0,0,0-3.05,2.58c-.3,2.07-.28,4.18-.4,6.28-.05.77,0,1.58-1.15,1.57s-1-.92-1-1.63c.07-3,.2-6,.25-9,0-1.4.6-1.91,2-1.52C384.24,11.62,383.39,12.77,384.55,12.63Z" style="fill:#fff"/><path d="M413.42,11.32c-3.2,0-5.6,2.68-5.64,6.31,0,3.39,2.19,5.91,5.24,5.91s5.62-2.75,5.63-6.35C418.65,13.76,416.49,11.32,413.42,11.32Zm-.31,10.17c-1.87,0-3.23-1.68-3.17-3.94.06-2.44,1.56-4.24,3.5-4.19,1.78,0,3,1.62,3,3.82C416.46,19.67,415.05,21.48,413.11,21.49Z" style="fill:#fff"/><path d="M373,11.78c-.43.21-.95.34-.76,1,.25.9.74.52,1.29.37a4.55,4.55,0,0,1,3.29-.1,1.9,1.9,0,0,1,1.13,1.86c0,1-.87.69-1.41.83a25.73,25.73,0,0,0-2.86.66c-2.42.91-3.51,3.16-2.57,5.16s3.1,2.4,5.44,1.18c.63-.32,1.22-1.14,1.42.38.09.56.84.32,1.31.27s.64-.47.64-.92v-4H380c0-.77,0-1.53,0-2.31C380.08,11.85,376.84,9.84,373,11.78Zm4.89,7.06a3.05,3.05,0,0,1-3.07,3,1.8,1.8,0,0,1-1.86-2.06c.06-1.5,2-2.72,4-2.54C377.88,17.33,377.93,17.42,377.84,18.84Z" style="fill:#fff"/><path d="M404.83,14.45q0-3.87,0-7.74c0-.78,0-1.58,1.13-1.57s1,.9,1,1.62c-.16,5.16-.34,10.32-.49,15.48,0,.78-.09,1.34-1.12,1.33s-1-.64-1-1.38c0-2.58,0-5.16,0-7.74Z" style="fill:#fff"/><path d="M402.73,16.15c-.14,2.42-.27,4.31-.34,6.2,0,.86-.32,1.25-1.25,1.21s-.92-.63-.89-1.29c.12-3.21.25-6.43.35-9.65,0-.78.13-1.34,1.14-1.34s1,.7,1,1.41C402.72,14,402.73,15.35,402.73,16.15Z" style="fill:#fff"/><path d="M401.91,8.68c-.75-.13-1.18-.49-1.18-1.11A1.13,1.13,0,0,1,403,7.5C403,8.27,402.43,8.52,401.91,8.68Z" style="fill:#fff"/><path d="M384.55,12.63c-.17.18-.47.53-.51.51-.69-.48-.19-1.19-.31-1.79C384.37,11.54,383.89,12.45,384.55,12.63Z" style="fill:#fff"/><path d="M292.57,33.68a28.52,28.52,0,0,1-3.67-1.39c-.26-.42.08-.68.26-1a2.61,2.61,0,0,0,.17-.28,7.33,7.33,0,0,0,.06-1.62c0-.81.27-1.32,1.11-1.44a6.89,6.89,0,0,1,4.58,1.83,11.93,11.93,0,0,1,2,2.29c.29.54.3.86-.36,1s-1.16.37-1.73.56h-.45a2.29,2.29,0,0,0-1.55,0Z" style="fill:#fff"/><path d="M293,33.68a1.26,1.26,0,0,1,1.55,0Z" style="fill:#fff"/><path d="M259,7.12c0-1.59-.07-3.18,0-4.76A2.15,2.15,0,0,1,261.37,0h25.48a2.11,2.11,0,0,1,2.41,2.36c0,1.59,0,3.17,0,4.76a1.18,1.18,0,0,1-.59.27c-3.65.14-7.29,0-10.93.05-2.06,0-4.12,0-6.18,0-3.7,0-7.39,0-11.09,0C259.94,7.4,259.4,7.51,259,7.12Z" style="fill:#fff"/><path d="M295.08,29.8a14.89,14.89,0,0,0-4.5-1.66c-.31.21-.66.05-1,.12a.4.4,0,0,0-.22.16,13.3,13.3,0,0,0,0,2.75.64.64,0,0,1-.11.3l-.36.82a2.48,2.48,0,0,1-2.15.87q-12.62,0-25.22,0c-1.82,0-2.59-.78-2.6-2.64,0-2.14,0-4.27,0-6.44-.58-.18-1,.51-1.6.22l1.55-2.13c.3-.43,0-1,.22-1.4a2.9,2.9,0,0,0,.82-1.78c-.24.18-.34.48-.62.58s-.27-.13-.34-.28a1.11,1.11,0,0,1,.42-1c.29-.29.51-.84,1.05-.6A1.16,1.16,0,0,1,261,19a3.11,3.11,0,0,1-.73,1.71,2.3,2.3,0,0,0-.67,1.69.64.64,0,0,0,.77-.25c.7-1,2-1.55,2.37-2.85.14-.43.44-1,.91-.16A6.36,6.36,0,0,1,260.93,23c-1.25.9-1.07,2.06-1,3.27,0,.4.33.54.69.58a10,10,0,0,0,1.22,0c8.85,0,17.71,0,26.56,0a2.67,2.67,0,0,0,2.6-.31,7.87,7.87,0,0,1,5.61.16c.64.28.77.57.31,1.14A9.69,9.69,0,0,1,295.08,29.8Z" style="fill:#fff"/><path d="M263.5,18.83c-.12.08-.33.14-.34.22-.19,1.59-1.77,2.14-2.49,3.34-.26.42-1,.48-1.59.54.14-1.4,1.12-2.32,1.56-3.49.09-.23.3-.44.18-.7s-.09-.71-.42-.87-.48.33-.71.52a1.14,1.14,0,0,0-.58.89c-.07.09-.09.23-.23.26A8.32,8.32,0,0,1,254,21.4c-.21,0-.65.26-.55-.32a21.78,21.78,0,0,0,5-9.81A19.33,19.33,0,0,0,259,7.12l12.53.06c.44.41.34,1,.3,1.45a26.63,26.63,0,0,1-1.9,8.94,11.6,11.6,0,0,1-4.23,5.14,4.4,4.4,0,0,1-1.09.53c-.34.11-.73.32-1,0s0-.64.09-.93a5.24,5.24,0,0,0,.29-3.36C263.82,18.51,263.66,18.78,263.5,18.83Z" style="fill:#fff"/><path d="M291,26.63c-.71.45-1.34,1.21-2.31.58a2.45,2.45,0,0,1-.26-1.5q0-8.48,0-17a2.23,2.23,0,0,1,.32-1.59l.46,0q0,9.27,0,18.54v1.39Z" style="fill:#fff"/><path d="M258.88,19.54l.23-.26.24.22c.38.42.19.86,0,1.3-.54.31,0,1-.51,1.36Z" style="fill:#fff"/><path d="M289.48,28c.33.24.74.09,1.1.19a1.22,1.22,0,0,0-.92,1.43c0,.62.27,1.31-.21,1.89A6.08,6.08,0,0,1,289.48,28Z" style="fill:#fff"/><path d="M289.48,28l0,3.51h-.19l-.06-.24a11.85,11.85,0,0,1,.07-3.31A.39.39,0,0,1,289.48,28Z" style="fill:#fff"/><path d="M259.39,20.8l0-1.3a1.36,1.36,0,0,1,1-1.17A3.48,3.48,0,0,1,259.39,20.8Z" style="fill:#fff"/><path d="M289.27,27.92c0,1.11,0,2.21-.07,3.31A5.5,5.5,0,0,1,289.27,27.92Z" style="fill:#fff"/><path d="M259.41,7.35H271v.11H259.36Z" style="fill:#fff"/><path d="M283.47,13.32a3,3,0,0,1-1.77,3.3,3.21,3.21,0,0,1-3.63-.78c-.93-1-.83-1.37.53-1.68a1.6,1.6,0,0,1,.7-.38,4.38,4.38,0,0,1,.63-.12c.52-.12,1.05-.19,1.57-.34a5,5,0,0,1,.66-.11C282.61,13.16,283.07,12.89,283.47,13.32Z" style="fill:#fff"/><path d="M278.14,13.94c-.29,0-.59.06-.88.11s-.59-.18-.38-.47,0-.6-.09-.89-.71-.7-.28-1,.69.3,1,.56a1.69,1.69,0,0,0,1.78.46c1.34-.38,2.72-.61,4.09-.9a2.43,2.43,0,0,1,.54-.08c.49,0,1.23-.18,1.33.4s-.68.48-1.08.66a2.71,2.71,0,0,1-.43.1,6.32,6.32,0,0,1-2,.48c-.22,0-.42.13-.65.15-.58.09-1.15.25-1.75.3a1.16,1.16,0,0,1-.45.12C278.64,13.92,278.39,13.76,278.14,13.94Z" style="fill:#fff"/><path d="M274.17,23.76h-2.54c-.24,0-.59.09-.58-.31s.34-.32.59-.32c1.29,0,2.58,0,3.87,0a5.89,5.89,0,0,0,3.47-.9c.21-.13.49-.49.73-.06s-.22.48-.43.63C277.72,23.87,276,23.83,274.17,23.76Z" style="fill:#fff"/><path d="M281.68,13.27a6.15,6.15,0,0,1,2-.39l-.24.44-1.33.16C282,13.36,281.78,13.46,281.68,13.27Z" style="fill:#fff"/><path d="M278.14,13.94a.86.86,0,0,1,.71-.17c.13.13.38,0,.48.22a.87.87,0,0,1-.73.17Z" style="fill:#fff"/><path d="M279.25,13.72a6,6,0,0,1,1.82-.38c.14.12.39,0,.48.22a4.55,4.55,0,0,1-1.63.36C279.72,13.76,279.42,14,279.25,13.72Z" style="fill:#fff"/><path d="M279.25,13.72c.21.09.49,0,.67.2l-.59.07-.48-.22Z" style="fill:#fff"/><path d="M281.55,13.56l-.48-.22.61-.07.46.21Z" style="fill:#fff"/><path d="M1.87,29.15C.18,28.38-.28,27.38.15,25.2.76,22.13,1.4,19.08,2,16c.05-.23.12-.47.16-.7.65-3.23.63-3.18,3.7-2A1.25,1.25,0,0,1,6.82,15Q6,19,5.23,23c-.14.82-.65,1.77.28,2.51a8.44,8.44,0,0,0,4.57.05,2.5,2.5,0,0,0,2.07-2.32c.91-4.58,2-9.12,2.89-13.71.32-1.74,1-2.26,2.68-2.15,2.32.16,2.35,0,1.85,2.33C18.38,15.14,17.2,20.58,16,26c-.36,1.53-.91,3-2.89,3.15A104.42,104.42,0,0,0,1.87,29.15Z" style="fill:#fff"/><path d="M47.2,23.61a2.1,2.1,0,0,1-2.5,1.92c-1.86-.09-3.73,0-5.61,0,.44-2.52,1.45-3.59,3.83-3.91a1.33,1.33,0,0,0,1.28-1.24c.43-2.18,1-4.34,1.35-6.53.18-1.12.48-1.41,1.61-1.07,2.92.89,2.94.84,2.39,3.8-.15.83-.29,1.66-.46,2.48-.54,2.57-.54,2.56,2.15,2.57,4.13,0,3.34.19,4.11-3.32.35-1.58.73-3.16,1-4.76.13-.81.37-.91,1.17-.7,3.35.86,3.36.82,2.6,4.14q-.63,2.8-1.22,5.63a3.21,3.21,0,0,1-3.35,2.9c-2,0-4.09,0-6.14,0C48.33,25.53,47.82,24.81,47.2,23.61Z" style="fill:#fff"/><path d="M36.13,12.59c-2.72-.31-4.15,1.58-5.61,3.29-3.1,3.64-2.45,6.13,2,8,.08,0,.13.16.25.28a25.24,25.24,0,0,1-4,3.84l.91.69c2.7,1.86,2.73,1.89,5.11-.37,3.28-3.11,5.59-6.72,5.42-11.47A4.1,4.1,0,0,0,36.13,12.59Zm-1.61,8.33c-.75-.29-1.55-.58-1.58-1.63s1.71-3,2.54-3,1,.74,1,1.41C36.58,18.77,35.23,20.9,34.52,20.92Z" style="fill:#fff"/><path d="M27.84,8.25c-1.07,5.47-2.15,10.93-3.19,16.4-.13.72-.5.81-1.1.86-3.64.35-3.66.36-2.93-3.26.94-4.69,1.69-9.42,2.9-14.06A4.1,4.1,0,0,1,27.84,8.25Z" style="fill:#fff"/><path d="M58.14,5.09c.55-.51,1.06-1,1.6-1.48.75-.64,1.3-1.85,2.63-.72s2,2.64,1.27,3.91a7.67,7.67,0,0,1-2.82,2.72c-1,.62-1.33-.35-1.66-.85-1-1.52-1.9-1.65-3.06-.13-.51.68-1.27,1.57-2.24,1.1-1.14-.56-1.74-1.78-2.46-2.8-.22-.31.19-.64.43-.91.67-.77,1.34-1.54,2-2.32,1.43-1.67,1.47-1.68,3-.12C57.24,4,57.64,4.49,58.14,5.09Z" style="fill:#fff"/><path d="M40.69,31.27c-.46-.28-1.56.69-1.63-.77-.11-2.06.57-3.2,2.06-3.09.76.05,2.1-.82,2.27.69C43.65,30.41,42.89,31.21,40.69,31.27Z" style="fill:#fff"/><path d="M46.7,27.39c.43.42,1.7-.76,1.75.78.07,2.52-.47,3.21-2.55,3.12-.64,0-1.8.66-1.79-.9C44.13,27.92,44.54,27.39,46.7,27.39Z" style="fill:#fff"/><path d="M1.87,29.15a42.35,42.35,0,0,1,11.19,0A90.82,90.82,0,0,1,1.87,29.15Z" style="fill:#fff"/><path d="M27.84,8.25C26.41,7.57,25,8,23.52,8.19c.89-1.71,2.42-.38,3.6-.74C27.63,7.29,28.08,7.55,27.84,8.25Z" style="fill:#fff"/><path d="M10.08,25.55a5.2,5.2,0,0,1-4.57-.05Z" style="fill:#fff"/></g></g></svg>