<svg xmlns="http://www.w3.org/2000/svg" viewBox="0 0 67.75 68.13"><g><g><path d="M44.84,18.42h3.52V12.15H44.89a11.14,11.14,0,0,0-1.06-2.64l2.43-2.43L41.82,2.64,39.43,5A11.33,11.33,0,0,0,36.76,3.9V.55H30.48V3.87A11.14,11.14,0,0,0,27.75,5L25.42,2.65,21,7.08l2.33,2.34a11.35,11.35,0,0,0-1.11,2.73H18.88v6.27h3.35m5.28-.72a6.51,6.51,0,1,1,12.06,0" style="fill:none;stroke:#009191;stroke-linecap:round;stroke-linejoin:round;stroke-width:1.08929325123859px"/><rect x="5.19" y="11.43" width="4.69" height="56.16" style="fill:none;stroke:#009191;stroke-linecap:round;stroke-linejoin:round;stroke-width:1.08929325123859px"/><rect x="57.82" y="11.43" width="4.69" height="56.16" style="fill:none;stroke:#009191;stroke-linecap:round;stroke-linejoin:round;stroke-width:1.08929325123859px"/><rect x="0.54" y="18.42" width="66.66" height="23.01" style="fill:#fff"/><polygon points="21.82 41.43 14.57 41.43 31.64 18.42 38.89 18.42 21.82 41.43" style="fill:#7ce8dd"/><polygon points="6.03 41.43 1.87 41.43 0.55 41.43 0.55 38.4 15.85 18.42 23.09 18.42 6.03 41.43" style="fill:#7ce8dd"/><polygon points="0.72 26.71 0.55 18.42 7.02 18.42 0.72 26.71" style="fill:#7ce8dd"/><polygon points="67.22 36.5 67.33 41.43 63.48 41.43 67.22 36.5" style="fill:#7ce8dd"/><polygon points="38.45 41.43 31.2 41.43 48.27 18.42 55.52 18.42 38.45 41.43" style="fill:#7ce8dd"/><polygon points="54.17 41.43 46.93 41.43 64 18.42 67.21 18.42 67.21 20.73 67.21 23.86 54.17 41.43" style="fill:#7ce8dd"/><rect x="0.54" y="18.42" width="66.66" height="23.01" style="fill:none;stroke:#009191;stroke-linecap:round;stroke-linejoin:round;stroke-width:1.08929325123859px"/><line x1="55.52" y1="18.42" x2="38.04" y2="41.43" style="fill:none;stroke:#009191;stroke-linecap:round;stroke-linejoin:round;stroke-width:1.08929325123859px"/><polyline points="34.48 63.4 39.41 38.4 44.11 38.4 48.92 63.4" style="fill:#fff;stroke:#009191;stroke-linecap:round;stroke-linejoin:round;stroke-width:1.08929325123859px"/><line x1="15.72" y1="18.42" x2="0.54" y2="38.4" style="fill:none;stroke:#009191;stroke-linecap:round;stroke-linejoin:round;stroke-width:1.08929325123859px"/><line x1="7.02" y1="18.42" x2="0.72" y2="26.71" style="fill:none;stroke:#009191;stroke-linecap:round;stroke-linejoin:round;stroke-width:1.08929325123859px"/><line x1="67.21" y1="36.5" x2="63.47" y2="41.43" style="fill:none;stroke:#009191;stroke-linecap:round;stroke-linejoin:round;stroke-width:1.08929325123859px"/><line x1="23.31" y1="18.42" x2="5.84" y2="41.43" style="fill:none;stroke:#009191;stroke-linecap:round;stroke-linejoin:round;stroke-width:1.08929325123859px"/><line x1="32.05" y1="18.42" x2="14.58" y2="41.43" style="fill:none;stroke:#009191;stroke-linecap:round;stroke-linejoin:round;stroke-width:1.08929325123859px"/><line x1="39.42" y1="18.42" x2="21.94" y2="41.43" style="fill:none;stroke:#009191;stroke-linecap:round;stroke-linejoin:round;stroke-width:1.08929325123859px"/><line x1="48.15" y1="18.42" x2="30.68" y2="41.43" style="fill:none;stroke:#009191;stroke-linecap:round;stroke-linejoin:round;stroke-width:1.08929325123859px"/><line x1="64.26" y1="18.42" x2="46.78" y2="41.43" style="fill:none;stroke:#009191;stroke-linecap:round;stroke-linejoin:round;stroke-width:1.08929325123859px"/><line x1="67.21" y1="24.23" x2="54.14" y2="41.43" style="fill:none;stroke:#009191;stroke-linecap:round;stroke-linejoin:round;stroke-width:1.08929325123859px"/><rect x="32.2" y="63.4" width="19.06" height="4.19" style="fill:#fff;stroke:#009191;stroke-linecap:round;stroke-linejoin:round;stroke-width:1.08929325123859px"/><line x1="37.02" y1="51.43" x2="46.62" y2="51.43" style="fill:#fff;stroke:#009191;stroke-linecap:round;stroke-linejoin:round;stroke-width:1.08929325123859px"/><line x1="38.04" y1="47.35" x2="45.45" y2="47.35" style="fill:#fff;stroke:#009191;stroke-linecap:round;stroke-linejoin:round;stroke-width:1.08929325123859px"/></g></g></svg>