<svg xmlns="http://www.w3.org/2000/svg" viewBox="0 0 128.99 57.98"><g><g><line x1="3.84" y1="26.22" x2="55.58" y2="26.22" style="fill:none;stroke:#009191;stroke-linecap:round;stroke-linejoin:round;stroke-width:1.08929325123859px"/><line x1="3.9" y1="22.86" x2="6.28" y2="22.86" style="fill:none;stroke:#009191;stroke-linecap:round;stroke-linejoin:round;stroke-width:1.08929325123859px"/><line x1="9.19" y1="22.86" x2="11.57" y2="22.86" style="fill:none;stroke:#009191;stroke-linecap:round;stroke-linejoin:round;stroke-width:1.08929325123859px"/><line x1="14.48" y1="22.86" x2="16.85" y2="22.86" style="fill:none;stroke:#009191;stroke-linecap:round;stroke-linejoin:round;stroke-width:1.08929325123859px"/><rect x="0.54" y="19.03" width="58.49" height="38.4" rx="3.31" ry="3.31" style="fill:none;stroke:#009191;stroke-linecap:round;stroke-linejoin:round;stroke-width:1.08929325123859px"/><line x1="73.26" y1="26.22" x2="125" y2="26.22" style="fill:none;stroke:#009191;stroke-linecap:round;stroke-linejoin:round;stroke-width:1.08929325123859px"/><line x1="73.32" y1="22.86" x2="75.7" y2="22.86" style="fill:none;stroke:#009191;stroke-linecap:round;stroke-linejoin:round;stroke-width:1.08929325123859px"/><line x1="78.61" y1="22.86" x2="80.99" y2="22.86" style="fill:none;stroke:#009191;stroke-linecap:round;stroke-linejoin:round;stroke-width:1.08929325123859px"/><line x1="83.89" y1="22.86" x2="86.27" y2="22.86" style="fill:none;stroke:#009191;stroke-linecap:round;stroke-linejoin:round;stroke-width:1.08929325123859px"/><rect x="69.96" y="19.03" width="58.49" height="38.4" rx="3.31" ry="3.31" style="fill:none;stroke:#009191;stroke-linecap:round;stroke-linejoin:round;stroke-width:1.08929325123859px"/><path d="M33.4,14s7-13.5,30-13.5S92.9,14,92.9,14" style="fill:none;stroke:#009191;stroke-linecap:round;stroke-linejoin:round;stroke-width:1.08929325123859px"/><polyline points="84.45 10.85 92.9 14.04 91.37 4.86" style="fill:none;stroke:#009191;stroke-linecap:round;stroke-linejoin:round;stroke-width:1.08929325123859px"/><path d="M100.15,33.33l1.38,4.25a1,1,0,0,0,.94.68h4.46a1,1,0,0,1,.58,1.79l-3.61,2.62a1,1,0,0,0-.36,1.11L104.92,48a1,1,0,0,1-1.52,1.1l-3.61-2.62a1,1,0,0,0-1.17,0L95,49.13A1,1,0,0,1,93.49,48l1.38-4.25a1,1,0,0,0-.36-1.11L90.9,40.05a1,1,0,0,1,.58-1.79h4.46a1,1,0,0,0,.94-.68l1.38-4.25A1,1,0,0,1,100.15,33.33Z" style="fill:#7ce8dd"/><circle cx="29.79" cy="41.39" r="8.74" style="fill:#7ce8dd"/></g></g></svg>