<svg xmlns="http://www.w3.org/2000/svg" viewBox="0 0 101.14 100.28"><g><g><path d="M10.48,59V9.24A8.22,8.22,0,0,1,18.7,1H69.26a8.22,8.22,0,0,1,8.21,8.22V35.89a8.21,8.21,0,0,1-8.21,8.21H26.5Z" style="fill:none;stroke:#009191;stroke-linecap:round;stroke-linejoin:round;stroke-width:2.04621067780437px"/><polygon points="35.16 12.21 35.16 33.2 52.9 22.26 35.16 12.21" style="fill:#7ce8dd"/><path d="M25.85,51.82H65.16a5.47,5.47,0,0,1,5.47,5.47v36.5a5.47,5.47,0,0,1-5.47,5.47H6.49A5.47,5.47,0,0,1,1,93.79V57.29a5.47,5.47,0,0,1,5.47-5.47h0" style="fill:none;stroke:#009191;stroke-linecap:round;stroke-linejoin:round;stroke-width:2.04621067780437px"/><rect x="20.53" y="60.54" width="42.12" height="30" style="fill:none;stroke:#009191;stroke-linecap:round;stroke-linejoin:round;stroke-width:2.04621067780437px"/><line x1="6.93" y1="75.54" x2="13.88" y2="75.54" style="fill:none;stroke:#009191;stroke-linecap:round;stroke-linejoin:round;stroke-width:2.04621067780437px"/><line x1="6.93" y1="80.79" x2="13.88" y2="80.79" style="fill:none;stroke:#009191;stroke-linecap:round;stroke-linejoin:round;stroke-width:2.04621067780437px"/><line x1="6.93" y1="69.7" x2="13.88" y2="69.7" style="fill:none;stroke:#009191;stroke-linecap:round;stroke-linejoin:round;stroke-width:2.04621067780437px"/><circle cx="32.82" cy="75.12" r="5.77" style="fill:#7ce8dd"/><circle cx="51.75" cy="75.12" r="5.77" style="fill:#7ce8dd"/><line x1="70.63" y1="61.83" x2="78.27" y2="61.83" style="fill:none;stroke:#009191;stroke-linecap:round;stroke-linejoin:round;stroke-width:2.04621067780437px"/><line x1="70.63" y1="88.64" x2="78.27" y2="88.64" style="fill:none;stroke:#009191;stroke-linecap:round;stroke-linejoin:round;stroke-width:2.04621067780437px"/><polygon points="78.27 55.99 94.6 55.99 94.6 94 78.67 94 78.27 55.99" style="fill:#7ce8dd"/><path d="M94.6,61.83h0a5.52,5.52,0,0,1,5.52,5.52V83.12a5.52,5.52,0,0,1-5.52,5.52h0" style="fill:none;stroke:#009191;stroke-linecap:round;stroke-linejoin:round;stroke-width:2.04621067780437px"/><polygon points="78.27 55.99 94.6 55.99 94.6 94 78.67 94 78.27 55.99" style="fill:none;stroke:#009191;stroke-linecap:round;stroke-linejoin:round;stroke-width:2.04621067780437px"/></g></g></svg>